<?xml version="1.0" encoding="utf-8"?><!-- Uploaded to: SVG Repo, www.svgrepo.com, Generator: SVG Repo Mixer Tools -->
<svg width="800px" height="800px" viewBox="0 0 500 500" fill="none" xmlns="http://www.w3.org/2000/svg">
<path fill-rule="evenodd" clip-rule="evenodd" d="M109.494 39.686C109.418 24.086 121.533 10.55 148.651 10.012C175.769 9.47398 193.87 26.461 190.629 39.612C186.402 56.772 156.939 61.591 157.418 79.694C157.491 82.447 139.552 82.194 139.552 79.444C139.139 61.412 174.923 52.699 175.464 39.275C175.937 27.506 166.324 21.126 148.798 21.126C136.622 21.126 126.387 27.399 125.49 39.542C125.337 42.109 109.507 42.253 109.49 39.683L109.494 39.686Z" fill="#E1B100"/>
<path fill-rule="evenodd" clip-rule="evenodd" d="M148.385 88.252C155.219 88.252 160.768 91.926 160.768 96.452C160.768 100.978 155.219 104.652 148.385 104.652C141.551 104.652 136.005 100.978 136.005 96.452C136.005 91.926 141.553 88.252 148.385 88.252Z" fill="#E1B100"/>
<path d="M357.206 110.133C357.87 129.533 338.399 158.233 330.114 170.784L330.079 170.819C328.156 167.743 324.451 165.226 318.648 164.107C322.528 155.822 329.694 131.492 331.897 121.424C309.419 98.212 250.271 89.018 246.006 95.73C245.132 97.058 244.328 98.422 243.524 99.785C217.201 87.235 218.284 39.204 230.275 32.385C235.589 29.344 242.195 30.777 248.418 37.034C248.698 32.595 253.172 24.415 260.304 23.82C268.344 23.12 275.021 29.344 279.604 39.52C278.66 31.62 285.757 21.098 297.153 24.034C304.529 25.922 313.583 46.512 323.825 58.572C334.1 70.735 356.577 92.864 357.206 110.133Z" fill="#29263B"/>
<path d="M279.285 85.1C278.92 85.0997 278.564 84.9851 278.267 84.7722C277.97 84.5594 277.747 84.2589 277.63 83.913C274.902 75.882 275.367 63.435 277.361 56.513C277.425 56.2924 277.531 56.0864 277.674 55.9069C277.817 55.7274 277.994 55.5779 278.195 55.4668C278.396 55.3557 278.617 55.2854 278.845 55.2596C279.073 55.2339 279.304 55.2534 279.525 55.317C279.746 55.3805 279.952 55.4869 280.131 55.6301C280.311 55.7732 280.46 55.9503 280.571 56.1513C280.682 56.3522 280.753 56.5731 280.778 56.8012C280.804 57.0294 280.785 57.2604 280.721 57.481C278.864 63.927 278.51 75.636 280.94 82.793C281.029 83.0561 281.054 83.3366 281.013 83.6113C280.973 83.886 280.867 84.1471 280.705 84.3729C280.543 84.5987 280.33 84.7828 280.083 84.9099C279.836 85.037 279.563 85.1036 279.285 85.104V85.1Z" fill="#686674"/>
<path d="M262.157 84.964C261.814 84.9639 261.479 84.8631 261.193 84.6739C260.906 84.4847 260.682 84.2156 260.548 83.9C256.569 74.6865 255.149 64.5698 256.44 54.617C256.506 54.158 256.752 53.7442 257.124 53.4666C257.495 53.1889 257.962 53.0702 258.421 53.1365C258.879 53.2028 259.293 53.4487 259.571 53.8201C259.849 54.1915 259.967 54.658 259.901 55.117C258.699 64.4375 260.034 73.9098 263.765 82.535C263.878 82.8008 263.923 83.0905 263.897 83.3781C263.871 83.6657 263.774 83.9424 263.614 84.1834C263.455 84.4243 263.239 84.6221 262.984 84.759C262.73 84.8959 262.446 84.9677 262.157 84.968V84.964Z" fill="#686674"/>
<path d="M247.9 85.593C247.622 85.5934 247.348 85.5274 247.1 85.4004C246.853 85.2734 246.639 85.0892 246.477 84.863C240.841 77.002 238.144 67.352 238.46 56.179C238.463 55.9481 238.512 55.72 238.605 55.5085C238.698 55.297 238.832 55.1062 239 54.9477C239.168 54.7891 239.366 54.6659 239.582 54.5853C239.799 54.5048 240.029 54.4687 240.26 54.479C240.49 54.485 240.717 54.5363 240.927 54.6301C241.137 54.7239 241.326 54.8583 241.484 55.0256C241.642 55.1929 241.766 55.3897 241.847 55.6048C241.929 55.8199 241.967 56.0491 241.96 56.279C241.66 66.817 244.071 75.502 249.324 82.828C249.511 83.0892 249.622 83.3967 249.646 83.717C249.67 84.0373 249.605 84.3579 249.458 84.6437C249.312 84.9295 249.09 85.1695 248.816 85.3373C248.542 85.5051 248.227 85.5943 247.906 85.595L247.9 85.593Z" fill="#686674"/>
<path d="M243.524 99.785C227.339 127.297 222.864 159.143 225.241 173.021C228.422 191.654 245.618 203.311 262.156 203.311C262.471 210.967 261.877 223.605 261.877 223.605C261.877 223.605 253.102 225.388 242.3 228.464C238.84 292.332 312.076 296.736 336.127 234.164C326.874 229.938 317.286 226.488 307.461 223.852C307.461 223.852 306.727 198.892 309.489 186.482C325.849 194.662 336.231 180.26 330.079 170.821C328.156 167.745 324.451 165.228 318.648 164.109C322.528 155.824 329.694 131.494 331.897 121.426C309.419 98.214 250.271 89.02 246.006 95.732C245.132 97.058 244.328 98.422 243.524 99.785Z" fill="#FFA775"/>
<path d="M315.326 181.621C315.162 181.621 315.002 181.575 314.863 181.488C314.724 181.401 314.612 181.277 314.541 181.13C314.469 180.983 314.44 180.818 314.458 180.655C314.475 180.492 314.538 180.338 314.639 180.209C317.787 176.178 321.505 174.169 326.004 174.07C326.12 174.063 326.236 174.08 326.345 174.119C326.454 174.159 326.553 174.221 326.637 174.302C326.721 174.382 326.788 174.478 326.832 174.586C326.877 174.693 326.899 174.808 326.897 174.924C326.9 175.039 326.88 175.153 326.838 175.26C326.797 175.367 326.734 175.465 326.655 175.548C326.576 175.63 326.481 175.697 326.376 175.743C326.271 175.789 326.158 175.815 326.043 175.817C322.043 175.906 318.86 177.643 316.016 181.285C315.934 181.39 315.83 181.475 315.71 181.533C315.59 181.591 315.459 181.621 315.326 181.621Z" fill="#29263B"/>
<path d="M245.249 118.107C243.217 118.087 241.217 117.592 239.41 116.661C239.149 116.548 238.913 116.382 238.718 116.175C238.522 115.968 238.371 115.723 238.273 115.455C238.175 115.188 238.133 114.903 238.149 114.619C238.165 114.334 238.238 114.056 238.365 113.801C238.491 113.546 238.669 113.319 238.886 113.134C239.103 112.95 239.355 112.811 239.627 112.728C239.9 112.644 240.186 112.616 240.469 112.646C240.753 112.677 241.027 112.764 241.275 112.904C245.313 114.904 249.21 113.904 253.536 109.74C253.731 109.532 253.966 109.367 254.227 109.253C254.488 109.139 254.769 109.08 255.054 109.078C255.339 109.076 255.621 109.133 255.883 109.243C256.145 109.354 256.382 109.517 256.58 109.722C256.777 109.927 256.931 110.17 257.031 110.437C257.132 110.703 257.177 110.987 257.164 111.272C257.152 111.556 257.081 111.835 256.957 112.091C256.834 112.348 256.659 112.576 256.444 112.763C252.746 116.322 249 118.107 245.249 118.107Z" fill="#29263B"/>
<path d="M304.173 127.332C303.669 127.331 303.182 127.148 302.801 126.818C302.42 126.487 302.171 126.031 302.099 125.532C301.921 123.892 301.361 122.317 300.465 120.932C299.569 119.548 298.361 118.392 296.938 117.558C295.706 116.918 294.335 116.589 292.947 116.6C291.558 116.611 290.193 116.962 288.971 117.621C288.473 117.837 287.912 117.852 287.403 117.663C286.895 117.474 286.479 117.095 286.244 116.607C286.008 116.118 285.971 115.557 286.139 115.042C286.308 114.526 286.669 114.096 287.148 113.841C288.966 112.896 290.985 112.404 293.034 112.407C295.083 112.41 297.1 112.908 298.915 113.859C300.92 115.004 302.629 116.604 303.903 118.529C305.178 120.455 305.982 122.653 306.253 124.946C306.33 125.497 306.186 126.056 305.851 126.5C305.517 126.945 305.02 127.239 304.469 127.317C304.371 127.328 304.272 127.333 304.173 127.332Z" fill="#29263B"/>
<path d="M262.54 180.817C262.332 180.817 262.132 180.743 261.974 180.608C261.816 180.473 261.711 180.287 261.678 180.082C261.415 178.809 261.615 177.483 262.243 176.344C262.872 175.206 263.886 174.329 265.104 173.873C268.547 172.489 273.904 173.806 277.488 178.992C277.62 179.183 277.67 179.418 277.628 179.646C277.587 179.874 277.456 180.076 277.265 180.208C277.074 180.34 276.839 180.39 276.611 180.348C276.383 180.307 276.181 180.176 276.049 179.985C272.99 175.552 268.549 174.373 265.754 175.495C264.902 175.8 264.192 176.407 263.758 177.202C263.325 177.997 263.199 178.923 263.404 179.804C263.44 180.033 263.384 180.266 263.248 180.453C263.113 180.641 262.908 180.767 262.68 180.804C262.634 180.812 262.587 180.816 262.54 180.817Z" fill="#29263B"/>
<path d="M255.27 161.031C255.173 161.031 255.077 161.015 254.986 160.984C253.974 160.637 245.069 157.478 244.374 153.273C243.659 148.944 254.729 126.837 257.887 122.549C258.024 122.362 258.23 122.238 258.459 122.203C258.689 122.168 258.922 122.226 259.109 122.363C259.296 122.5 259.42 122.706 259.455 122.936C259.49 123.165 259.432 123.398 259.295 123.585C255.716 128.445 245.556 149.699 246.095 152.985C246.495 155.385 252.103 158.147 255.549 159.327C255.744 159.395 255.909 159.529 256.015 159.706C256.12 159.884 256.159 160.093 256.125 160.297C256.092 160.5 255.987 160.685 255.829 160.819C255.672 160.953 255.472 161.026 255.266 161.027L255.27 161.031Z" fill="#29263B"/>
<path d="M384.508 479.173C345.32 490.673 244.538 495.743 204.721 480.466L203.221 337.287L158.552 319.313C158.552 319.313 183.085 259.751 209.303 241.888C217.413 236.33 230.977 231.68 242.303 228.464C238.843 292.332 312.079 296.736 336.13 234.164C349.518 240.247 365.074 249.231 376.75 261.606C402.231 288.591 384.508 479.173 384.508 479.173Z" fill="#29263B"/>
<path fill-rule="evenodd" clip-rule="evenodd" d="M291.14 130.849C293.255 131.387 294.083 135.309 292.989 139.599C291.895 143.889 289.289 146.929 287.175 146.391C285.061 145.853 284.228 141.93 285.323 137.641C286.418 133.352 289.023 130.31 291.14 130.849Z" fill="#29263B"/>
<path fill-rule="evenodd" clip-rule="evenodd" d="M246.411 120.739C248.53 121.281 249.358 125.199 248.264 129.489C247.17 133.779 244.564 136.823 242.447 136.281C240.33 135.739 239.504 131.82 240.598 127.535C241.692 123.25 244.298 120.2 246.411 120.735V120.739Z" fill="#29263B"/>
<path fill-rule="evenodd" clip-rule="evenodd" d="M370.056 317.865C370.056 317.865 362.163 295.865 349.708 293.391C336.888 290.84 319.345 301.677 305.708 312.422C294.475 287.976 282.072 255.738 281.933 243.975C289.204 226.832 281.796 212.52 299.883 196.062C308.259 188.441 296.171 177.139 284.859 189.99C276.266 199.753 262.059 199.547 254.271 197.946C238.753 194.765 230.171 183.512 226.934 179.052C216.559 180.198 218.771 191.531 221.243 196.457C216.286 197.901 214.021 206.738 217.286 212.188C213.318 215.135 211.542 219.442 216.31 227.8C212.479 231.555 213.94 239.049 218.142 242.737C218.142 242.737 230.465 251.229 238.842 254.854C242.55 282.561 248.265 309.963 255.942 336.842C231.742 341.062 203.392 344.23 203.392 344.23L203.28 337.41L161.6 320.539C150.8 346.051 145.253 394.897 169.527 405.119C190.909 414.119 230.227 408.474 273.136 382.819C283.726 404.213 296.862 419.519 312.724 419.535C338.568 419.566 355.509 394.789 355.509 394.789C360.221 380.705 358.009 366.789 348.84 356.401C348.818 356.306 348.809 356.201 348.779 356.115C354.047 357.978 361.759 352.815 359.63 347.274C364.23 348.561 368.16 342.488 367.639 333.474C371.05 330.056 371.856 324.853 370.056 317.865Z" fill="#FFA775"/>
<path d="M349.039 356.657C348.815 356.657 348.6 356.571 348.438 356.417C348.276 356.263 348.179 356.053 348.167 355.83C347.777 348.605 344.867 341.758 339.008 334.281C338.873 334.098 338.815 333.87 338.846 333.645C338.877 333.42 338.994 333.215 339.173 333.075C339.351 332.935 339.578 332.87 339.804 332.894C340.03 332.918 340.237 333.029 340.383 333.203C346.475 340.976 349.502 348.136 349.913 355.736C349.925 355.967 349.845 356.194 349.69 356.367C349.535 356.539 349.318 356.643 349.087 356.656L349.039 356.657Z" fill="#29263B"/>
<path d="M359.854 347.449C359.648 347.449 359.449 347.376 359.292 347.243C359.135 347.11 359.029 346.927 358.994 346.724C357.39 336.898 352.523 327.898 345.179 321.175C345.01 321.016 344.912 320.796 344.905 320.564C344.898 320.333 344.984 320.108 345.143 319.939C345.302 319.77 345.522 319.672 345.754 319.665C345.985 319.658 346.21 319.744 346.379 319.903C353.964 326.913 359.008 336.242 360.718 346.427C360.757 346.655 360.704 346.89 360.57 347.08C360.437 347.269 360.233 347.397 360.005 347.437C359.955 347.445 359.905 347.449 359.854 347.449Z" fill="#29263B"/>
<path d="M367.854 334.372C367.657 334.372 367.466 334.305 367.312 334.183C367.158 334.061 367.049 333.891 367.004 333.699C364.469 323.008 359.399 314.232 351.936 307.619C351.85 307.543 351.78 307.451 351.73 307.348C351.68 307.245 351.65 307.133 351.643 307.018C351.629 306.787 351.707 306.559 351.861 306.386C352.015 306.213 352.231 306.107 352.462 306.093C352.693 306.079 352.921 306.157 353.094 306.311C360.833 313.168 366.085 322.247 368.705 333.297C368.758 333.523 368.719 333.76 368.598 333.957C368.476 334.154 368.281 334.295 368.056 334.349C367.99 334.364 367.922 334.372 367.854 334.372Z" fill="#29263B"/>
<path d="M327.846 354.006C327.69 354.006 327.537 353.965 327.403 353.886C327.269 353.808 327.158 353.695 327.082 353.559L320.557 341.881C311.294 331.06 281.271 261.939 281.057 243.981C281.056 243.86 281.079 243.741 281.126 243.63C283.712 237.53 284.416 231.73 285.097 226.112C286.343 215.834 287.52 206.126 299.297 195.412C301.321 193.569 302.178 191.325 301.646 189.253C301.35 188.248 300.786 187.343 300.015 186.635C299.243 185.926 298.293 185.441 297.267 185.232C293.567 184.348 289.279 186.288 285.516 190.563C277.443 199.736 263.992 200.833 254.096 198.798C243.247 196.575 233.871 190.098 226.228 179.561C226.156 179.468 226.103 179.362 226.073 179.249C226.043 179.136 226.036 179.018 226.052 178.901C226.069 178.785 226.109 178.674 226.169 178.573C226.23 178.473 226.31 178.386 226.405 178.317C226.499 178.248 226.607 178.199 226.721 178.173C226.836 178.146 226.954 178.143 227.069 178.164C227.185 178.184 227.295 178.227 227.394 178.291C227.492 178.355 227.576 178.438 227.642 178.535C230.393 182.328 238.763 193.871 254.447 197.086C257.7 197.755 274.422 200.524 284.203 189.409C288.409 184.63 293.322 182.488 297.674 183.533C299.01 183.815 300.243 184.456 301.241 185.388C302.239 186.319 302.964 187.505 303.338 188.818C304.038 191.538 302.993 194.412 300.473 196.704C289.179 206.981 288.04 216.376 286.835 226.322C286.146 232.006 285.435 237.88 282.811 244.141C283.218 262.194 312.875 330.356 321.939 340.8C321.977 340.845 322.01 340.894 322.039 340.946L328.607 352.701C328.681 352.834 328.719 352.984 328.718 353.136C328.716 353.288 328.675 353.437 328.598 353.569C328.521 353.7 328.411 353.809 328.28 353.885C328.148 353.96 327.998 354.001 327.846 354.001V354.006Z" fill="#29263B"/>
</svg>