<svg xmlns="http://www.w3.org/2000/svg" xmlns:xlink="http://www.w3.org/1999/xlink" width="500" zoomAndPan="magnify" viewBox="0 0 375 374.999991" height="500" preserveAspectRatio="xMidYMid meet" version="1.0"><defs><g/><clipPath id="cf23b400d2"><path d="M 134 157.511719 L 139 157.511719 L 139 175 L 134 175 Z M 134 157.511719 " clip-rule="nonzero"/></clipPath><clipPath id="f7cd51d60d"><path d="M 140 157.511719 L 146 157.511719 L 146 175 L 140 175 Z M 140 157.511719 " clip-rule="nonzero"/></clipPath><clipPath id="0d125e178b"><path d="M 147 157.511719 L 152 157.511719 L 152 175 L 147 175 Z M 147 157.511719 " clip-rule="nonzero"/></clipPath><clipPath id="71b29e347c"><path d="M 126.484375 180.328125 L 159.40625 180.328125 L 159.40625 207.75 L 126.484375 207.75 Z M 126.484375 180.328125 " clip-rule="nonzero"/></clipPath></defs><path stroke-linecap="round" transform="matrix(0.000000000000000046, -0.75142, 0.75, 0.000000000000000046, 117.463451, 229.950042)" fill="none" stroke-linejoin="miter" d="M 33.999214 34.001859 L 89.779001 34.001859 " stroke="#d6860d" stroke-width="68" stroke-opacity="1" stroke-miterlimit="4"/><g clip-path="url(#cf23b400d2)"><path fill="#ffffff" d="M 136.363281 174.539062 C 136.265625 174.539062 136.167969 174.527344 136.070312 174.5 C 135.484375 174.335938 135.144531 173.726562 135.304688 173.140625 C 135.324219 173.074219 135.371094 172.957031 135.402344 172.894531 C 136.371094 170.925781 137.105469 168.285156 136.269531 166.761719 C 136.113281 166.476562 135.992188 166.378906 135.773438 166.203125 C 135.484375 165.972656 135.089844 165.65625 134.738281 164.996094 C 133.835938 163.277344 134.128906 161.011719 135.613281 158.269531 C 135.90625 157.730469 136.570312 157.535156 137.105469 157.828125 C 137.636719 158.121094 137.832031 158.792969 137.542969 159.324219 C 136.445312 161.347656 136.148438 162.949219 136.683594 163.957031 C 136.816406 164.214844 136.921875 164.300781 137.140625 164.472656 C 137.425781 164.707031 137.824219 165.019531 138.191406 165.691406 C 139.714844 168.472656 138.121094 172.339844 137.371094 173.875 L 137.367188 173.875 C 137.195312 174.28125 136.792969 174.539062 136.363281 174.539062 " fill-opacity="1" fill-rule="nonzero"/></g><g clip-path="url(#f7cd51d60d)"><path fill="#ffffff" d="M 142.945312 174.539062 C 142.851562 174.539062 142.753906 174.527344 142.652344 174.5 C 142.070312 174.335938 141.726562 173.726562 141.886719 173.140625 C 141.90625 173.074219 141.957031 172.957031 141.988281 172.894531 C 142.953125 170.925781 143.6875 168.285156 142.855469 166.761719 C 142.699219 166.476562 142.578125 166.378906 142.355469 166.203125 C 142.066406 165.972656 141.675781 165.65625 141.328125 164.996094 C 140.421875 163.277344 140.714844 161.011719 142.199219 158.269531 C 142.488281 157.730469 143.15625 157.535156 143.6875 157.828125 C 144.222656 158.121094 144.417969 158.792969 144.125 159.324219 C 143.035156 161.347656 142.734375 162.949219 143.265625 163.957031 C 143.398438 164.214844 143.507812 164.300781 143.722656 164.472656 C 144.011719 164.707031 144.40625 165.019531 144.777344 165.691406 C 146.296875 168.472656 144.710938 172.339844 143.953125 173.875 C 143.777344 174.28125 143.378906 174.539062 142.945312 174.539062 " fill-opacity="1" fill-rule="nonzero"/></g><g clip-path="url(#0d125e178b)"><path fill="#ffffff" d="M 149.53125 174.539062 C 149.433594 174.539062 149.335938 174.527344 149.238281 174.5 C 148.65625 174.335938 148.3125 173.726562 148.476562 173.140625 C 148.492188 173.074219 148.542969 172.957031 148.574219 172.894531 C 149.539062 170.925781 150.273438 168.285156 149.4375 166.761719 C 149.28125 166.476562 149.164062 166.378906 148.941406 166.203125 C 148.65625 165.972656 148.261719 165.65625 147.910156 164.996094 C 147.003906 163.277344 147.296875 161.011719 148.785156 158.269531 C 149.074219 157.730469 149.742188 157.535156 150.273438 157.828125 C 150.804688 158.121094 151 158.792969 150.714844 159.324219 C 149.617188 161.347656 149.316406 162.949219 149.847656 163.957031 C 149.984375 164.214844 150.089844 164.300781 150.308594 164.472656 C 150.597656 164.707031 150.992188 165.019531 151.359375 165.691406 C 152.882812 168.472656 151.292969 172.339844 150.539062 173.875 C 150.363281 174.28125 149.964844 174.539062 149.53125 174.539062 " fill-opacity="1" fill-rule="nonzero"/></g><g clip-path="url(#71b29e347c)"><path fill="#ffffff" d="M 159.40625 185.960938 C 159.40625 192.476562 156.785156 198.382812 152.550781 202.65625 L 152.550781 205.808594 C 152.550781 206.878906 151.6875 207.75 150.617188 207.75 L 135.273438 207.75 C 134.210938 207.75 133.34375 206.878906 133.34375 205.808594 L 133.34375 202.65625 C 129.105469 198.382812 126.484375 192.476562 126.484375 185.960938 C 126.484375 184.636719 126.59375 183.34375 126.800781 182.082031 C 126.953125 181.136719 127.753906 180.4375 128.703125 180.4375 L 157.1875 180.4375 C 158.140625 180.4375 158.941406 181.136719 159.09375 182.082031 C 159.300781 183.34375 159.40625 184.636719 159.40625 185.960938 " fill-opacity="1" fill-rule="nonzero"/></g><g fill="#000000" fill-opacity="1"><g transform="translate(180.821405, 162.1517)"><g><path d="M 15.46875 -20.25 C 15.988281 -20.25 16.410156 -20.09375 16.734375 -19.78125 C 17.066406 -19.46875 17.234375 -19.0625 17.234375 -18.5625 C 17.234375 -18.0625 17.066406 -17.660156 16.734375 -17.359375 C 16.410156 -17.066406 15.988281 -16.921875 15.46875 -16.921875 L 10.9375 -16.921875 L 10.9375 -1.765625 C 10.9375 -1.265625 10.75 -0.84375 10.375 -0.5 C 10.007812 -0.164062 9.5625 0 9.03125 0 C 8.488281 0 8.039062 -0.164062 7.6875 -0.5 C 7.34375 -0.84375 7.171875 -1.265625 7.171875 -1.765625 L 7.171875 -16.921875 L 2.625 -16.921875 C 2.101562 -16.921875 1.679688 -17.070312 1.359375 -17.375 C 1.035156 -17.6875 0.875 -18.09375 0.875 -18.59375 C 0.875 -19.070312 1.039062 -19.46875 1.375 -19.78125 C 1.707031 -20.09375 2.125 -20.25 2.625 -20.25 Z M 15.46875 -20.25 "/></g></g></g><g fill="#000000" fill-opacity="1"><g transform="translate(199.506367, 162.1517)"><g><path d="M 10 -15.765625 C 11.914062 -15.765625 13.238281 -15.179688 13.96875 -14.015625 C 14.695312 -12.847656 15.0625 -11.234375 15.0625 -9.171875 L 15.0625 -1.765625 C 15.0625 -1.265625 14.894531 -0.84375 14.5625 -0.5 C 14.238281 -0.164062 13.828125 0 13.328125 0 C 12.828125 0 12.410156 -0.164062 12.078125 -0.5 C 11.753906 -0.84375 11.59375 -1.265625 11.59375 -1.765625 L 11.59375 -9.171875 C 11.59375 -10.234375 11.382812 -11.066406 10.96875 -11.671875 C 10.5625 -12.273438 9.835938 -12.578125 8.796875 -12.578125 C 7.710938 -12.578125 6.863281 -12.253906 6.25 -11.609375 C 5.644531 -10.960938 5.34375 -10.148438 5.34375 -9.171875 L 5.34375 -1.765625 C 5.34375 -1.265625 5.179688 -0.84375 4.859375 -0.5 C 4.535156 -0.164062 4.117188 0 3.609375 0 C 3.109375 0 2.691406 -0.164062 2.359375 -0.5 C 2.035156 -0.84375 1.875 -1.265625 1.875 -1.765625 L 1.875 -19.640625 C 1.875 -20.140625 2.035156 -20.554688 2.359375 -20.890625 C 2.691406 -21.234375 3.109375 -21.40625 3.609375 -21.40625 C 4.117188 -21.40625 4.535156 -21.234375 4.859375 -20.890625 C 5.179688 -20.554688 5.34375 -20.140625 5.34375 -19.640625 L 5.34375 -13.25 C 5.863281 -13.9375 6.523438 -14.523438 7.328125 -15.015625 C 8.128906 -15.515625 9.019531 -15.765625 10 -15.765625 Z M 10 -15.765625 "/></g></g></g><g fill="#000000" fill-opacity="1"><g transform="translate(217.034376, 162.1517)"><g><path d="M 15.765625 -8.09375 C 15.742188 -7.632812 15.554688 -7.257812 15.203125 -6.96875 C 14.859375 -6.675781 14.457031 -6.53125 14 -6.53125 L 4.453125 -6.53125 C 4.679688 -5.394531 5.207031 -4.503906 6.03125 -3.859375 C 6.863281 -3.210938 7.800781 -2.890625 8.84375 -2.890625 C 9.632812 -2.890625 10.25 -2.960938 10.6875 -3.109375 C 11.132812 -3.253906 11.488281 -3.40625 11.75 -3.5625 C 12.007812 -3.726562 12.191406 -3.84375 12.296875 -3.90625 C 12.640625 -4.082031 12.96875 -4.171875 13.28125 -4.171875 C 13.675781 -4.171875 14.019531 -4.023438 14.3125 -3.734375 C 14.601562 -3.441406 14.75 -3.101562 14.75 -2.71875 C 14.75 -2.195312 14.476562 -1.722656 13.9375 -1.296875 C 13.394531 -0.859375 12.671875 -0.484375 11.765625 -0.171875 C 10.859375 0.140625 9.945312 0.296875 9.03125 0.296875 C 7.40625 0.296875 5.988281 -0.0390625 4.78125 -0.71875 C 3.582031 -1.394531 2.65625 -2.328125 2 -3.515625 C 1.34375 -4.703125 1.015625 -6.035156 1.015625 -7.515625 C 1.015625 -9.171875 1.359375 -10.625 2.046875 -11.875 C 2.742188 -13.132812 3.660156 -14.097656 4.796875 -14.765625 C 5.929688 -15.429688 7.144531 -15.765625 8.4375 -15.765625 C 9.71875 -15.765625 10.921875 -15.414062 12.046875 -14.71875 C 13.171875 -14.03125 14.070312 -13.097656 14.75 -11.921875 C 15.425781 -10.742188 15.765625 -9.46875 15.765625 -8.09375 Z M 8.4375 -12.578125 C 6.207031 -12.578125 4.890625 -11.523438 4.484375 -9.421875 L 12.0625 -9.421875 L 12.0625 -9.625 C 11.976562 -10.4375 11.578125 -11.128906 10.859375 -11.703125 C 10.148438 -12.285156 9.34375 -12.578125 8.4375 -12.578125 Z M 8.4375 -12.578125 "/></g></g></g><g fill="#000000" fill-opacity="1"><g transform="translate(180.821405, 192.164541)"><g><path d="M 16.34375 -19.265625 C 16.9375 -18.953125 17.234375 -18.457031 17.234375 -17.78125 C 17.234375 -17.375 17.085938 -16.976562 16.796875 -16.59375 C 16.492188 -16.195312 16.101562 -16 15.625 -16 C 15.289062 -16 14.960938 -16.082031 14.640625 -16.25 C 13.691406 -16.695312 12.664062 -16.921875 11.5625 -16.921875 C 10.21875 -16.921875 9.039062 -16.632812 8.03125 -16.0625 C 7.03125 -15.5 6.257812 -14.703125 5.71875 -13.671875 C 5.1875 -12.640625 4.921875 -11.457031 4.921875 -10.125 C 4.921875 -7.84375 5.53125 -6.113281 6.75 -4.9375 C 7.976562 -3.769531 9.582031 -3.1875 11.5625 -3.1875 C 12.738281 -3.1875 13.765625 -3.40625 14.640625 -3.84375 C 14.984375 -4 15.289062 -4.078125 15.5625 -4.078125 C 16.0625 -4.078125 16.484375 -3.863281 16.828125 -3.4375 C 17.117188 -3.070312 17.265625 -2.675781 17.265625 -2.25 C 17.265625 -1.945312 17.1875 -1.671875 17.03125 -1.421875 C 16.875 -1.171875 16.65625 -0.976562 16.375 -0.84375 C 14.863281 -0.0820312 13.257812 0.296875 11.5625 0.296875 C 9.675781 0.296875 7.941406 -0.101562 6.359375 -0.90625 C 4.773438 -1.707031 3.507812 -2.890625 2.5625 -4.453125 C 1.625 -6.015625 1.15625 -7.90625 1.15625 -10.125 C 1.15625 -12.09375 1.601562 -13.859375 2.5 -15.421875 C 3.394531 -16.984375 4.632812 -18.203125 6.21875 -19.078125 C 7.800781 -19.953125 9.582031 -20.390625 11.5625 -20.390625 C 13.28125 -20.390625 14.875 -20.015625 16.34375 -19.265625 Z M 16.34375 -19.265625 "/></g></g></g><g fill="#000000" fill-opacity="1"><g transform="translate(199.535277, 192.164541)"><g><path d="M 16.75 -7.71875 C 16.75 -6.175781 16.398438 -4.789062 15.703125 -3.5625 C 15.003906 -2.34375 14.050781 -1.394531 12.84375 -0.71875 C 11.644531 -0.0390625 10.320312 0.296875 8.875 0.296875 C 7.414062 0.296875 6.085938 -0.0390625 4.890625 -0.71875 C 3.691406 -1.394531 2.742188 -2.34375 2.046875 -3.5625 C 1.359375 -4.789062 1.015625 -6.175781 1.015625 -7.71875 C 1.015625 -9.257812 1.359375 -10.640625 2.046875 -11.859375 C 2.742188 -13.085938 3.691406 -14.046875 4.890625 -14.734375 C 6.085938 -15.421875 7.414062 -15.765625 8.875 -15.765625 C 10.320312 -15.765625 11.644531 -15.421875 12.84375 -14.734375 C 14.050781 -14.046875 15.003906 -13.085938 15.703125 -11.859375 C 16.398438 -10.640625 16.75 -9.257812 16.75 -7.71875 Z M 13.28125 -7.71875 C 13.28125 -8.664062 13.082031 -9.507812 12.6875 -10.25 C 12.289062 -10.988281 11.757812 -11.5625 11.09375 -11.96875 C 10.425781 -12.375 9.6875 -12.578125 8.875 -12.578125 C 8.070312 -12.578125 7.335938 -12.375 6.671875 -11.96875 C 6.003906 -11.5625 5.472656 -10.988281 5.078125 -10.25 C 4.679688 -9.507812 4.484375 -8.664062 4.484375 -7.71875 C 4.484375 -6.78125 4.679688 -5.941406 5.078125 -5.203125 C 5.472656 -4.472656 6.003906 -3.90625 6.671875 -3.5 C 7.335938 -3.09375 8.070312 -2.890625 8.875 -2.890625 C 9.6875 -2.890625 10.425781 -3.09375 11.09375 -3.5 C 11.757812 -3.90625 12.289062 -4.472656 12.6875 -5.203125 C 13.082031 -5.941406 13.28125 -6.78125 13.28125 -7.71875 Z M 13.28125 -7.71875 "/></g></g></g><g fill="#000000" fill-opacity="1"><g transform="translate(217.873151, 192.164541)"><g><path d="M 9.3125 -18.34375 C 8.65625 -18.34375 8.191406 -18.148438 7.921875 -17.765625 C 7.648438 -17.390625 7.515625 -16.984375 7.515625 -16.546875 L 7.515625 -15.1875 L 10.15625 -15.1875 C 10.613281 -15.1875 10.992188 -15.035156 11.296875 -14.734375 C 11.609375 -14.429688 11.765625 -14.050781 11.765625 -13.59375 C 11.765625 -13.132812 11.609375 -12.753906 11.296875 -12.453125 C 10.992188 -12.148438 10.613281 -12 10.15625 -12 L 7.515625 -12 L 7.515625 -1.765625 C 7.515625 -1.265625 7.347656 -0.84375 7.015625 -0.5 C 6.691406 -0.164062 6.28125 0 5.78125 0 C 5.28125 0 4.863281 -0.164062 4.53125 -0.5 C 4.207031 -0.84375 4.046875 -1.265625 4.046875 -1.765625 L 4.046875 -12 L 2.484375 -12 C 2.023438 -12 1.640625 -12.148438 1.328125 -12.453125 C 1.023438 -12.753906 0.875 -13.132812 0.875 -13.59375 C 0.875 -14.050781 1.023438 -14.429688 1.328125 -14.734375 C 1.640625 -15.035156 2.023438 -15.1875 2.484375 -15.1875 L 4.046875 -15.1875 L 4.046875 -16.515625 C 4.046875 -17.960938 4.539062 -19.140625 5.53125 -20.046875 C 6.53125 -20.953125 7.960938 -21.40625 9.828125 -21.40625 C 10.546875 -21.40625 11.171875 -21.257812 11.703125 -20.96875 C 12.234375 -20.675781 12.5 -20.234375 12.5 -19.640625 C 12.5 -19.171875 12.363281 -18.789062 12.09375 -18.5 C 11.820312 -18.21875 11.492188 -18.078125 11.109375 -18.078125 C 11.015625 -18.078125 10.910156 -18.085938 10.796875 -18.109375 C 10.691406 -18.128906 10.582031 -18.144531 10.46875 -18.15625 C 10.007812 -18.28125 9.625 -18.34375 9.3125 -18.34375 Z M 9.3125 -18.34375 "/></g></g></g><g fill="#000000" fill-opacity="1"><g transform="translate(230.513046, 192.164541)"><g><path d="M 9.3125 -18.34375 C 8.65625 -18.34375 8.191406 -18.148438 7.921875 -17.765625 C 7.648438 -17.390625 7.515625 -16.984375 7.515625 -16.546875 L 7.515625 -15.1875 L 10.15625 -15.1875 C 10.613281 -15.1875 10.992188 -15.035156 11.296875 -14.734375 C 11.609375 -14.429688 11.765625 -14.050781 11.765625 -13.59375 C 11.765625 -13.132812 11.609375 -12.753906 11.296875 -12.453125 C 10.992188 -12.148438 10.613281 -12 10.15625 -12 L 7.515625 -12 L 7.515625 -1.765625 C 7.515625 -1.265625 7.347656 -0.84375 7.015625 -0.5 C 6.691406 -0.164062 6.28125 0 5.78125 0 C 5.28125 0 4.863281 -0.164062 4.53125 -0.5 C 4.207031 -0.84375 4.046875 -1.265625 4.046875 -1.765625 L 4.046875 -12 L 2.484375 -12 C 2.023438 -12 1.640625 -12.148438 1.328125 -12.453125 C 1.023438 -12.753906 0.875 -13.132812 0.875 -13.59375 C 0.875 -14.050781 1.023438 -14.429688 1.328125 -14.734375 C 1.640625 -15.035156 2.023438 -15.1875 2.484375 -15.1875 L 4.046875 -15.1875 L 4.046875 -16.515625 C 4.046875 -17.960938 4.539062 -19.140625 5.53125 -20.046875 C 6.53125 -20.953125 7.960938 -21.40625 9.828125 -21.40625 C 10.546875 -21.40625 11.171875 -21.257812 11.703125 -20.96875 C 12.234375 -20.675781 12.5 -20.234375 12.5 -19.640625 C 12.5 -19.171875 12.363281 -18.789062 12.09375 -18.5 C 11.820312 -18.21875 11.492188 -18.078125 11.109375 -18.078125 C 11.015625 -18.078125 10.910156 -18.085938 10.796875 -18.109375 C 10.691406 -18.128906 10.582031 -18.144531 10.46875 -18.15625 C 10.007812 -18.28125 9.625 -18.34375 9.3125 -18.34375 Z M 9.3125 -18.34375 "/></g></g></g><g fill="#000000" fill-opacity="1"><g transform="translate(243.152942, 192.164541)"><g><path d="M 15.765625 -8.09375 C 15.742188 -7.632812 15.554688 -7.257812 15.203125 -6.96875 C 14.859375 -6.675781 14.457031 -6.53125 14 -6.53125 L 4.453125 -6.53125 C 4.679688 -5.394531 5.207031 -4.503906 6.03125 -3.859375 C 6.863281 -3.210938 7.800781 -2.890625 8.84375 -2.890625 C 9.632812 -2.890625 10.25 -2.960938 10.6875 -3.109375 C 11.132812 -3.253906 11.488281 -3.40625 11.75 -3.5625 C 12.007812 -3.726562 12.191406 -3.84375 12.296875 -3.90625 C 12.640625 -4.082031 12.96875 -4.171875 13.28125 -4.171875 C 13.675781 -4.171875 14.019531 -4.023438 14.3125 -3.734375 C 14.601562 -3.441406 14.75 -3.101562 14.75 -2.71875 C 14.75 -2.195312 14.476562 -1.722656 13.9375 -1.296875 C 13.394531 -0.859375 12.671875 -0.484375 11.765625 -0.171875 C 10.859375 0.140625 9.945312 0.296875 9.03125 0.296875 C 7.40625 0.296875 5.988281 -0.0390625 4.78125 -0.71875 C 3.582031 -1.394531 2.65625 -2.328125 2 -3.515625 C 1.34375 -4.703125 1.015625 -6.035156 1.015625 -7.515625 C 1.015625 -9.171875 1.359375 -10.625 2.046875 -11.875 C 2.742188 -13.132812 3.660156 -14.097656 4.796875 -14.765625 C 5.929688 -15.429688 7.144531 -15.765625 8.4375 -15.765625 C 9.71875 -15.765625 10.921875 -15.414062 12.046875 -14.71875 C 13.171875 -14.03125 14.070312 -13.097656 14.75 -11.921875 C 15.425781 -10.742188 15.765625 -9.46875 15.765625 -8.09375 Z M 8.4375 -12.578125 C 6.207031 -12.578125 4.890625 -11.523438 4.484375 -9.421875 L 12.0625 -9.421875 L 12.0625 -9.625 C 11.976562 -10.4375 11.578125 -11.128906 10.859375 -11.703125 C 10.148438 -12.285156 9.34375 -12.578125 8.4375 -12.578125 Z M 8.4375 -12.578125 "/></g></g></g><g fill="#000000" fill-opacity="1"><g transform="translate(260.50741, 192.164541)"><g><path d="M 15.765625 -8.09375 C 15.742188 -7.632812 15.554688 -7.257812 15.203125 -6.96875 C 14.859375 -6.675781 14.457031 -6.53125 14 -6.53125 L 4.453125 -6.53125 C 4.679688 -5.394531 5.207031 -4.503906 6.03125 -3.859375 C 6.863281 -3.210938 7.800781 -2.890625 8.84375 -2.890625 C 9.632812 -2.890625 10.25 -2.960938 10.6875 -3.109375 C 11.132812 -3.253906 11.488281 -3.40625 11.75 -3.5625 C 12.007812 -3.726562 12.191406 -3.84375 12.296875 -3.90625 C 12.640625 -4.082031 12.96875 -4.171875 13.28125 -4.171875 C 13.675781 -4.171875 14.019531 -4.023438 14.3125 -3.734375 C 14.601562 -3.441406 14.75 -3.101562 14.75 -2.71875 C 14.75 -2.195312 14.476562 -1.722656 13.9375 -1.296875 C 13.394531 -0.859375 12.671875 -0.484375 11.765625 -0.171875 C 10.859375 0.140625 9.945312 0.296875 9.03125 0.296875 C 7.40625 0.296875 5.988281 -0.0390625 4.78125 -0.71875 C 3.582031 -1.394531 2.65625 -2.328125 2 -3.515625 C 1.34375 -4.703125 1.015625 -6.035156 1.015625 -7.515625 C 1.015625 -9.171875 1.359375 -10.625 2.046875 -11.875 C 2.742188 -13.132812 3.660156 -14.097656 4.796875 -14.765625 C 5.929688 -15.429688 7.144531 -15.765625 8.4375 -15.765625 C 9.71875 -15.765625 10.921875 -15.414062 12.046875 -14.71875 C 13.171875 -14.03125 14.070312 -13.097656 14.75 -11.921875 C 15.425781 -10.742188 15.765625 -9.46875 15.765625 -8.09375 Z M 8.4375 -12.578125 C 6.207031 -12.578125 4.890625 -11.523438 4.484375 -9.421875 L 12.0625 -9.421875 L 12.0625 -9.625 C 11.976562 -10.4375 11.578125 -11.128906 10.859375 -11.703125 C 10.148438 -12.285156 9.34375 -12.578125 8.4375 -12.578125 Z M 8.4375 -12.578125 "/></g></g></g><g fill="#000000" fill-opacity="1"><g transform="translate(180.821405, 222.177381)"><g><path d="M 16.34375 -19.265625 C 16.9375 -18.953125 17.234375 -18.457031 17.234375 -17.78125 C 17.234375 -17.375 17.085938 -16.976562 16.796875 -16.59375 C 16.492188 -16.195312 16.101562 -16 15.625 -16 C 15.289062 -16 14.960938 -16.082031 14.640625 -16.25 C 13.691406 -16.695312 12.664062 -16.921875 11.5625 -16.921875 C 10.21875 -16.921875 9.039062 -16.632812 8.03125 -16.0625 C 7.03125 -15.5 6.257812 -14.703125 5.71875 -13.671875 C 5.1875 -12.640625 4.921875 -11.457031 4.921875 -10.125 C 4.921875 -7.84375 5.53125 -6.113281 6.75 -4.9375 C 7.976562 -3.769531 9.582031 -3.1875 11.5625 -3.1875 C 12.738281 -3.1875 13.765625 -3.40625 14.640625 -3.84375 C 14.984375 -4 15.289062 -4.078125 15.5625 -4.078125 C 16.0625 -4.078125 16.484375 -3.863281 16.828125 -3.4375 C 17.117188 -3.070312 17.265625 -2.675781 17.265625 -2.25 C 17.265625 -1.945312 17.1875 -1.671875 17.03125 -1.421875 C 16.875 -1.171875 16.65625 -0.976562 16.375 -0.84375 C 14.863281 -0.0820312 13.257812 0.296875 11.5625 0.296875 C 9.675781 0.296875 7.941406 -0.101562 6.359375 -0.90625 C 4.773438 -1.707031 3.507812 -2.890625 2.5625 -4.453125 C 1.625 -6.015625 1.15625 -7.90625 1.15625 -10.125 C 1.15625 -12.09375 1.601562 -13.859375 2.5 -15.421875 C 3.394531 -16.984375 4.632812 -18.203125 6.21875 -19.078125 C 7.800781 -19.953125 9.582031 -20.390625 11.5625 -20.390625 C 13.28125 -20.390625 14.875 -20.015625 16.34375 -19.265625 Z M 16.34375 -19.265625 "/></g></g></g><g fill="#000000" fill-opacity="1"><g transform="translate(199.535277, 222.177381)"><g><path d="M 5.640625 -1.765625 C 5.640625 -1.265625 5.46875 -0.84375 5.125 -0.5 C 4.789062 -0.164062 4.375 0 3.875 0 C 3.394531 0 2.988281 -0.164062 2.65625 -0.5 C 2.332031 -0.84375 2.171875 -1.265625 2.171875 -1.765625 L 2.171875 -19.640625 C 2.171875 -20.140625 2.335938 -20.554688 2.671875 -20.890625 C 3.015625 -21.234375 3.4375 -21.40625 3.9375 -21.40625 C 4.414062 -21.40625 4.816406 -21.234375 5.140625 -20.890625 C 5.472656 -20.554688 5.640625 -20.140625 5.640625 -19.640625 Z M 5.640625 -1.765625 "/></g></g></g><g fill="#000000" fill-opacity="1"><g transform="translate(207.923387, 222.177381)"><g><path d="M 14.40625 -15.765625 C 14.90625 -15.765625 15.316406 -15.597656 15.640625 -15.265625 C 15.972656 -14.941406 16.140625 -14.519531 16.140625 -14 L 16.140625 -1.765625 C 16.140625 -1.265625 15.972656 -0.84375 15.640625 -0.5 C 15.316406 -0.164062 14.90625 0 14.40625 0 C 13.90625 0 13.492188 -0.160156 13.171875 -0.484375 C 12.859375 -0.816406 12.691406 -1.234375 12.671875 -1.734375 C 12.179688 -1.171875 11.523438 -0.691406 10.703125 -0.296875 C 9.890625 0.0976562 9.03125 0.296875 8.125 0.296875 C 6.789062 0.296875 5.582031 -0.046875 4.5 -0.734375 C 3.425781 -1.421875 2.578125 -2.367188 1.953125 -3.578125 C 1.328125 -4.796875 1.015625 -6.175781 1.015625 -7.71875 C 1.015625 -9.257812 1.320312 -10.640625 1.9375 -11.859375 C 2.550781 -13.085938 3.394531 -14.046875 4.46875 -14.734375 C 5.539062 -15.421875 6.722656 -15.765625 8.015625 -15.765625 C 8.941406 -15.765625 9.804688 -15.59375 10.609375 -15.25 C 11.421875 -14.914062 12.109375 -14.488281 12.671875 -13.96875 L 12.671875 -14 C 12.671875 -14.5 12.832031 -14.914062 13.15625 -15.25 C 13.488281 -15.59375 13.90625 -15.765625 14.40625 -15.765625 Z M 8.5625 -2.890625 C 9.8125 -2.890625 10.832031 -3.347656 11.625 -4.265625 C 12.414062 -5.179688 12.8125 -6.332031 12.8125 -7.71875 C 12.8125 -9.101562 12.414062 -10.257812 11.625 -11.1875 C 10.832031 -12.113281 9.8125 -12.578125 8.5625 -12.578125 C 7.320312 -12.578125 6.304688 -12.113281 5.515625 -11.1875 C 4.734375 -10.257812 4.34375 -9.101562 4.34375 -7.71875 C 4.34375 -6.332031 4.734375 -5.179688 5.515625 -4.265625 C 6.296875 -3.347656 7.3125 -2.890625 8.5625 -2.890625 Z M 8.5625 -2.890625 "/></g></g></g><g fill="#000000" fill-opacity="1"><g transform="translate(226.521574, 222.177381)"><g><path d="M 0.984375 -2.40625 C 0.804688 -2.632812 0.71875 -2.921875 0.71875 -3.265625 C 0.71875 -3.765625 0.96875 -4.191406 1.46875 -4.546875 C 1.738281 -4.710938 2.019531 -4.796875 2.3125 -4.796875 C 2.71875 -4.796875 3.101562 -4.613281 3.46875 -4.25 C 4.050781 -3.65625 4.65625 -3.210938 5.28125 -2.921875 C 5.90625 -2.628906 6.660156 -2.484375 7.546875 -2.484375 C 9.046875 -2.546875 9.796875 -3.113281 9.796875 -4.1875 C 9.796875 -4.75 9.539062 -5.175781 9.03125 -5.46875 C 8.519531 -5.757812 7.726562 -6.046875 6.65625 -6.328125 C 5.53125 -6.640625 4.613281 -6.945312 3.90625 -7.25 C 3.207031 -7.5625 2.601562 -8.03125 2.09375 -8.65625 C 1.582031 -9.289062 1.328125 -10.132812 1.328125 -11.1875 C 1.328125 -12.113281 1.59375 -12.921875 2.125 -13.609375 C 2.65625 -14.296875 3.347656 -14.828125 4.203125 -15.203125 C 5.066406 -15.578125 5.976562 -15.765625 6.9375 -15.765625 C 7.925781 -15.765625 8.910156 -15.578125 9.890625 -15.203125 C 10.867188 -14.835938 11.640625 -14.300781 12.203125 -13.59375 C 12.453125 -13.28125 12.578125 -12.929688 12.578125 -12.546875 C 12.578125 -12.109375 12.394531 -11.742188 12.03125 -11.453125 C 11.757812 -11.242188 11.453125 -11.140625 11.109375 -11.140625 C 10.679688 -11.140625 10.332031 -11.273438 10.0625 -11.546875 C 9.71875 -11.960938 9.269531 -12.296875 8.71875 -12.546875 C 8.164062 -12.796875 7.546875 -12.921875 6.859375 -12.921875 C 5.390625 -12.921875 4.65625 -12.394531 4.65625 -11.34375 C 4.65625 -10.914062 4.789062 -10.570312 5.0625 -10.3125 C 5.332031 -10.050781 5.671875 -9.847656 6.078125 -9.703125 C 6.492188 -9.554688 7.082031 -9.378906 7.84375 -9.171875 C 8.882812 -8.878906 9.75 -8.578125 10.4375 -8.265625 C 11.132812 -7.960938 11.722656 -7.492188 12.203125 -6.859375 C 12.679688 -6.222656 12.921875 -5.382812 12.921875 -4.34375 C 12.921875 -3.394531 12.640625 -2.566406 12.078125 -1.859375 C 11.523438 -1.160156 10.8125 -0.625 9.9375 -0.25 C 9.0625 0.113281 8.160156 0.296875 7.234375 0.296875 C 5.960938 0.296875 4.773438 0.0820312 3.671875 -0.34375 C 2.578125 -0.769531 1.679688 -1.457031 0.984375 -2.40625 Z M 0.984375 -2.40625 "/></g></g></g><g fill="#000000" fill-opacity="1"><g transform="translate(241.041512, 222.177381)"><g><path d="M 0.984375 -2.40625 C 0.804688 -2.632812 0.71875 -2.921875 0.71875 -3.265625 C 0.71875 -3.765625 0.96875 -4.191406 1.46875 -4.546875 C 1.738281 -4.710938 2.019531 -4.796875 2.3125 -4.796875 C 2.71875 -4.796875 3.101562 -4.613281 3.46875 -4.25 C 4.050781 -3.65625 4.65625 -3.210938 5.28125 -2.921875 C 5.90625 -2.628906 6.660156 -2.484375 7.546875 -2.484375 C 9.046875 -2.546875 9.796875 -3.113281 9.796875 -4.1875 C 9.796875 -4.75 9.539062 -5.175781 9.03125 -5.46875 C 8.519531 -5.757812 7.726562 -6.046875 6.65625 -6.328125 C 5.53125 -6.640625 4.613281 -6.945312 3.90625 -7.25 C 3.207031 -7.5625 2.601562 -8.03125 2.09375 -8.65625 C 1.582031 -9.289062 1.328125 -10.132812 1.328125 -11.1875 C 1.328125 -12.113281 1.59375 -12.921875 2.125 -13.609375 C 2.65625 -14.296875 3.347656 -14.828125 4.203125 -15.203125 C 5.066406 -15.578125 5.976562 -15.765625 6.9375 -15.765625 C 7.925781 -15.765625 8.910156 -15.578125 9.890625 -15.203125 C 10.867188 -14.835938 11.640625 -14.300781 12.203125 -13.59375 C 12.453125 -13.28125 12.578125 -12.929688 12.578125 -12.546875 C 12.578125 -12.109375 12.394531 -11.742188 12.03125 -11.453125 C 11.757812 -11.242188 11.453125 -11.140625 11.109375 -11.140625 C 10.679688 -11.140625 10.332031 -11.273438 10.0625 -11.546875 C 9.71875 -11.960938 9.269531 -12.296875 8.71875 -12.546875 C 8.164062 -12.796875 7.546875 -12.921875 6.859375 -12.921875 C 5.390625 -12.921875 4.65625 -12.394531 4.65625 -11.34375 C 4.65625 -10.914062 4.789062 -10.570312 5.0625 -10.3125 C 5.332031 -10.050781 5.671875 -9.847656 6.078125 -9.703125 C 6.492188 -9.554688 7.082031 -9.378906 7.84375 -9.171875 C 8.882812 -8.878906 9.75 -8.578125 10.4375 -8.265625 C 11.132812 -7.960938 11.722656 -7.492188 12.203125 -6.859375 C 12.679688 -6.222656 12.921875 -5.382812 12.921875 -4.34375 C 12.921875 -3.394531 12.640625 -2.566406 12.078125 -1.859375 C 11.523438 -1.160156 10.8125 -0.625 9.9375 -0.25 C 9.0625 0.113281 8.160156 0.296875 7.234375 0.296875 C 5.960938 0.296875 4.773438 0.0820312 3.671875 -0.34375 C 2.578125 -0.769531 1.679688 -1.457031 0.984375 -2.40625 Z M 0.984375 -2.40625 "/></g></g></g></svg>