<svg xmlns="http://www.w3.org/2000/svg" xmlns:xlink="http://www.w3.org/1999/xlink" width="500" zoomAndPan="magnify" viewBox="0 0 375 374.999991" height="500" preserveAspectRatio="xMidYMid meet" version="1.0"><defs><g/><clipPath id="f4463b48e8"><path d="M 134 157.511719 L 139 157.511719 L 139 175 L 134 175 Z M 134 157.511719 " clip-rule="nonzero"/></clipPath><clipPath id="b2bebf05c8"><path d="M 140 157.511719 L 146 157.511719 L 146 175 L 140 175 Z M 140 157.511719 " clip-rule="nonzero"/></clipPath><clipPath id="c34ae43e66"><path d="M 147 157.511719 L 152 157.511719 L 152 175 L 147 175 Z M 147 157.511719 " clip-rule="nonzero"/></clipPath><clipPath id="84140f1c88"><path d="M 126.484375 180.328125 L 159.40625 180.328125 L 159.40625 207.75 L 126.484375 207.75 Z M 126.484375 180.328125 " clip-rule="nonzero"/></clipPath></defs><path stroke-linecap="round" transform="matrix(0.000000000000000046, -0.75142, 0.75, 0.000000000000000046, 117.463451, 229.950102)" fill="none" stroke-linejoin="miter" d="M 33.999294 34.001859 L 89.779081 34.001859 " stroke="#ffffff" stroke-width="68" stroke-opacity="1" stroke-miterlimit="4"/><g clip-path="url(#f4463b48e8)"><path fill="#d6860d" d="M 136.363281 174.539062 C 136.265625 174.539062 136.167969 174.527344 136.070312 174.5 C 135.484375 174.335938 135.144531 173.726562 135.304688 173.140625 C 135.324219 173.074219 135.371094 172.957031 135.402344 172.894531 C 136.371094 170.925781 137.105469 168.285156 136.269531 166.761719 C 136.113281 166.476562 135.992188 166.378906 135.773438 166.203125 C 135.484375 165.972656 135.089844 165.65625 134.738281 164.996094 C 133.835938 163.277344 134.128906 161.011719 135.613281 158.269531 C 135.90625 157.730469 136.570312 157.535156 137.105469 157.828125 C 137.636719 158.121094 137.832031 158.792969 137.542969 159.324219 C 136.445312 161.347656 136.148438 162.949219 136.683594 163.957031 C 136.816406 164.214844 136.921875 164.300781 137.140625 164.472656 C 137.425781 164.707031 137.824219 165.019531 138.191406 165.691406 C 139.714844 168.472656 138.121094 172.339844 137.371094 173.875 L 137.367188 173.875 C 137.195312 174.28125 136.792969 174.539062 136.363281 174.539062 " fill-opacity="1" fill-rule="nonzero"/></g><g clip-path="url(#b2bebf05c8)"><path fill="#d6860d" d="M 142.945312 174.539062 C 142.851562 174.539062 142.753906 174.527344 142.652344 174.5 C 142.070312 174.335938 141.726562 173.726562 141.886719 173.140625 C 141.90625 173.074219 141.957031 172.957031 141.988281 172.894531 C 142.953125 170.925781 143.6875 168.285156 142.855469 166.761719 C 142.699219 166.476562 142.578125 166.378906 142.355469 166.203125 C 142.066406 165.972656 141.675781 165.65625 141.328125 164.996094 C 140.421875 163.277344 140.714844 161.011719 142.199219 158.269531 C 142.488281 157.730469 143.15625 157.535156 143.6875 157.828125 C 144.222656 158.121094 144.417969 158.792969 144.125 159.324219 C 143.035156 161.347656 142.734375 162.949219 143.265625 163.957031 C 143.398438 164.214844 143.507812 164.300781 143.722656 164.472656 C 144.011719 164.707031 144.40625 165.019531 144.777344 165.691406 C 146.296875 168.472656 144.710938 172.339844 143.953125 173.875 C 143.777344 174.28125 143.378906 174.539062 142.945312 174.539062 " fill-opacity="1" fill-rule="nonzero"/></g><g clip-path="url(#c34ae43e66)"><path fill="#d6860d" d="M 149.53125 174.539062 C 149.433594 174.539062 149.335938 174.527344 149.238281 174.5 C 148.65625 174.335938 148.3125 173.726562 148.476562 173.140625 C 148.492188 173.074219 148.542969 172.957031 148.574219 172.894531 C 149.539062 170.925781 150.273438 168.285156 149.4375 166.761719 C 149.28125 166.476562 149.164062 166.378906 148.941406 166.203125 C 148.65625 165.972656 148.261719 165.65625 147.910156 164.996094 C 147.003906 163.277344 147.296875 161.011719 148.785156 158.269531 C 149.074219 157.730469 149.742188 157.535156 150.273438 157.828125 C 150.804688 158.121094 151 158.792969 150.714844 159.324219 C 149.617188 161.347656 149.316406 162.949219 149.847656 163.957031 C 149.984375 164.214844 150.089844 164.300781 150.308594 164.472656 C 150.597656 164.707031 150.992188 165.019531 151.359375 165.691406 C 152.882812 168.472656 151.292969 172.339844 150.539062 173.875 C 150.363281 174.28125 149.964844 174.539062 149.53125 174.539062 " fill-opacity="1" fill-rule="nonzero"/></g><g clip-path="url(#84140f1c88)"><path fill="#d6860d" d="M 159.40625 185.960938 C 159.40625 192.476562 156.785156 198.382812 152.550781 202.65625 L 152.550781 205.808594 C 152.550781 206.878906 151.6875 207.75 150.617188 207.75 L 135.273438 207.75 C 134.210938 207.75 133.34375 206.878906 133.34375 205.808594 L 133.34375 202.65625 C 129.105469 198.382812 126.484375 192.476562 126.484375 185.960938 C 126.484375 184.636719 126.59375 183.34375 126.800781 182.082031 C 126.953125 181.136719 127.753906 180.4375 128.703125 180.4375 L 157.1875 180.4375 C 158.140625 180.4375 158.941406 181.136719 159.09375 182.082031 C 159.300781 183.34375 159.40625 184.636719 159.40625 185.960938 " fill-opacity="1" fill-rule="nonzero"/></g><g fill="#ffffff" fill-opacity="1"><g transform="translate(180.821405, 162.479639)"><g><path d="M 15.484375 -20.25 C 16.003906 -20.25 16.425781 -20.09375 16.75 -19.78125 C 17.082031 -19.476562 17.25 -19.078125 17.25 -18.578125 C 17.25 -18.078125 17.082031 -17.675781 16.75 -17.375 C 16.425781 -17.070312 16.003906 -16.921875 15.484375 -16.921875 L 10.9375 -16.921875 L 10.9375 -1.765625 C 10.9375 -1.265625 10.753906 -0.84375 10.390625 -0.5 C 10.023438 -0.164062 9.570312 0 9.03125 0 C 8.488281 0 8.039062 -0.164062 7.6875 -0.5 C 7.34375 -0.84375 7.171875 -1.265625 7.171875 -1.765625 L 7.171875 -16.921875 L 2.640625 -16.921875 C 2.117188 -16.921875 1.691406 -17.078125 1.359375 -17.390625 C 1.035156 -17.703125 0.875 -18.109375 0.875 -18.609375 C 0.875 -19.085938 1.039062 -19.476562 1.375 -19.78125 C 1.707031 -20.09375 2.128906 -20.25 2.640625 -20.25 Z M 15.484375 -20.25 "/></g></g></g><g fill="#ffffff" fill-opacity="1"><g transform="translate(199.512513, 162.479639)"><g><path d="M 10.015625 -15.765625 C 11.921875 -15.765625 13.238281 -15.179688 13.96875 -14.015625 C 14.707031 -12.847656 15.078125 -11.234375 15.078125 -9.171875 L 15.078125 -1.765625 C 15.078125 -1.265625 14.910156 -0.84375 14.578125 -0.5 C 14.253906 -0.164062 13.84375 0 13.34375 0 C 12.84375 0 12.425781 -0.164062 12.09375 -0.5 C 11.769531 -0.84375 11.609375 -1.265625 11.609375 -1.765625 L 11.609375 -9.171875 C 11.609375 -10.234375 11.398438 -11.066406 10.984375 -11.671875 C 10.566406 -12.285156 9.835938 -12.59375 8.796875 -12.59375 C 7.710938 -12.59375 6.867188 -12.269531 6.265625 -11.625 C 5.660156 -10.976562 5.359375 -10.160156 5.359375 -9.171875 L 5.359375 -1.765625 C 5.359375 -1.265625 5.191406 -0.84375 4.859375 -0.5 C 4.535156 -0.164062 4.125 0 3.625 0 C 3.113281 0 2.691406 -0.164062 2.359375 -0.5 C 2.035156 -0.84375 1.875 -1.265625 1.875 -1.765625 L 1.875 -19.65625 C 1.875 -20.15625 2.035156 -20.570312 2.359375 -20.90625 C 2.691406 -21.238281 3.113281 -21.40625 3.625 -21.40625 C 4.125 -21.40625 4.535156 -21.238281 4.859375 -20.90625 C 5.191406 -20.570312 5.359375 -20.15625 5.359375 -19.65625 L 5.359375 -13.25 C 5.878906 -13.945312 6.535156 -14.539062 7.328125 -15.03125 C 8.128906 -15.519531 9.023438 -15.765625 10.015625 -15.765625 Z M 10.015625 -15.765625 "/></g></g></g><g fill="#ffffff" fill-opacity="1"><g transform="translate(217.046281, 162.479639)"><g><path d="M 15.765625 -8.109375 C 15.742188 -7.640625 15.5625 -7.257812 15.21875 -6.96875 C 14.875 -6.6875 14.46875 -6.546875 14 -6.546875 L 4.453125 -6.546875 C 4.679688 -5.398438 5.210938 -4.503906 6.046875 -3.859375 C 6.878906 -3.210938 7.816406 -2.890625 8.859375 -2.890625 C 9.648438 -2.890625 10.265625 -2.960938 10.703125 -3.109375 C 11.148438 -3.253906 11.503906 -3.40625 11.765625 -3.5625 C 12.023438 -3.726562 12.203125 -3.84375 12.296875 -3.90625 C 12.640625 -4.082031 12.96875 -4.171875 13.28125 -4.171875 C 13.6875 -4.171875 14.035156 -4.023438 14.328125 -3.734375 C 14.617188 -3.441406 14.765625 -3.101562 14.765625 -2.71875 C 14.765625 -2.195312 14.492188 -1.722656 13.953125 -1.296875 C 13.410156 -0.859375 12.6875 -0.484375 11.78125 -0.171875 C 10.875 0.140625 9.957031 0.296875 9.03125 0.296875 C 7.40625 0.296875 5.988281 -0.0390625 4.78125 -0.71875 C 3.582031 -1.394531 2.65625 -2.328125 2 -3.515625 C 1.34375 -4.703125 1.015625 -6.039062 1.015625 -7.53125 C 1.015625 -9.1875 1.359375 -10.640625 2.046875 -11.890625 C 2.742188 -13.148438 3.660156 -14.109375 4.796875 -14.765625 C 5.941406 -15.429688 7.160156 -15.765625 8.453125 -15.765625 C 9.722656 -15.765625 10.921875 -15.414062 12.046875 -14.71875 C 13.179688 -14.03125 14.082031 -13.097656 14.75 -11.921875 C 15.425781 -10.742188 15.765625 -9.472656 15.765625 -8.109375 Z M 8.453125 -12.59375 C 6.210938 -12.59375 4.890625 -11.539062 4.484375 -9.4375 L 12.0625 -9.4375 L 12.0625 -9.640625 C 11.988281 -10.453125 11.59375 -11.144531 10.875 -11.71875 C 10.164062 -12.300781 9.359375 -12.59375 8.453125 -12.59375 Z M 8.453125 -12.59375 "/></g></g></g><g fill="#ffffff" fill-opacity="1"><g transform="translate(180.821405, 192.479637)"><g><path d="M 16.34375 -19.265625 C 16.945312 -18.960938 17.25 -18.472656 17.25 -17.796875 C 17.25 -17.390625 17.101562 -16.992188 16.8125 -16.609375 C 16.5 -16.203125 16.101562 -16 15.625 -16 C 15.300781 -16 14.972656 -16.085938 14.640625 -16.265625 C 13.691406 -16.703125 12.671875 -16.921875 11.578125 -16.921875 C 10.222656 -16.921875 9.046875 -16.632812 8.046875 -16.0625 C 7.046875 -15.5 6.273438 -14.703125 5.734375 -13.671875 C 5.191406 -12.640625 4.921875 -11.457031 4.921875 -10.125 C 4.921875 -7.851562 5.53125 -6.128906 6.75 -4.953125 C 7.976562 -3.773438 9.585938 -3.1875 11.578125 -3.1875 C 12.753906 -3.1875 13.773438 -3.40625 14.640625 -3.84375 C 14.984375 -4 15.289062 -4.078125 15.5625 -4.078125 C 16.070312 -4.078125 16.5 -3.863281 16.84375 -3.4375 C 17.132812 -3.070312 17.28125 -2.675781 17.28125 -2.25 C 17.28125 -1.945312 17.203125 -1.671875 17.046875 -1.421875 C 16.890625 -1.171875 16.664062 -0.976562 16.375 -0.84375 C 14.875 -0.0820312 13.273438 0.296875 11.578125 0.296875 C 9.679688 0.296875 7.941406 -0.101562 6.359375 -0.90625 C 4.785156 -1.707031 3.523438 -2.890625 2.578125 -4.453125 C 1.628906 -6.015625 1.15625 -7.90625 1.15625 -10.125 C 1.15625 -12.09375 1.601562 -13.859375 2.5 -15.421875 C 3.394531 -16.984375 4.632812 -18.203125 6.21875 -19.078125 C 7.800781 -19.960938 9.585938 -20.40625 11.578125 -20.40625 C 13.296875 -20.40625 14.882812 -20.023438 16.34375 -19.265625 Z M 16.34375 -19.265625 "/></g></g></g><g fill="#ffffff" fill-opacity="1"><g transform="translate(199.541444, 192.479637)"><g><path d="M 16.75 -7.71875 C 16.75 -6.175781 16.398438 -4.789062 15.703125 -3.5625 C 15.015625 -2.34375 14.066406 -1.394531 12.859375 -0.71875 C 11.648438 -0.0390625 10.328125 0.296875 8.890625 0.296875 C 7.421875 0.296875 6.085938 -0.0390625 4.890625 -0.71875 C 3.691406 -1.394531 2.742188 -2.34375 2.046875 -3.5625 C 1.359375 -4.789062 1.015625 -6.175781 1.015625 -7.71875 C 1.015625 -9.269531 1.359375 -10.65625 2.046875 -11.875 C 2.742188 -13.101562 3.691406 -14.054688 4.890625 -14.734375 C 6.085938 -15.421875 7.421875 -15.765625 8.890625 -15.765625 C 10.328125 -15.765625 11.648438 -15.421875 12.859375 -14.734375 C 14.066406 -14.054688 15.015625 -13.101562 15.703125 -11.875 C 16.398438 -10.65625 16.75 -9.269531 16.75 -7.71875 Z M 13.28125 -7.71875 C 13.28125 -8.664062 13.082031 -9.507812 12.6875 -10.25 C 12.289062 -11 11.757812 -11.578125 11.09375 -11.984375 C 10.425781 -12.390625 9.691406 -12.59375 8.890625 -12.59375 C 8.078125 -12.59375 7.335938 -12.390625 6.671875 -11.984375 C 6.003906 -11.578125 5.472656 -11 5.078125 -10.25 C 4.679688 -9.507812 4.484375 -8.664062 4.484375 -7.71875 C 4.484375 -6.78125 4.679688 -5.941406 5.078125 -5.203125 C 5.472656 -4.472656 6.003906 -3.90625 6.671875 -3.5 C 7.335938 -3.09375 8.078125 -2.890625 8.890625 -2.890625 C 9.691406 -2.890625 10.425781 -3.09375 11.09375 -3.5 C 11.757812 -3.90625 12.289062 -4.472656 12.6875 -5.203125 C 13.082031 -5.941406 13.28125 -6.78125 13.28125 -7.71875 Z M 13.28125 -7.71875 "/></g></g></g><g fill="#ffffff" fill-opacity="1"><g transform="translate(217.885351, 192.479637)"><g><path d="M 9.3125 -18.34375 C 8.65625 -18.34375 8.191406 -18.15625 7.921875 -17.78125 C 7.660156 -17.40625 7.53125 -16.992188 7.53125 -16.546875 L 7.53125 -15.1875 L 10.15625 -15.1875 C 10.625 -15.1875 11.007812 -15.035156 11.3125 -14.734375 C 11.625 -14.441406 11.78125 -14.0625 11.78125 -13.59375 C 11.78125 -13.132812 11.625 -12.753906 11.3125 -12.453125 C 11.007812 -12.160156 10.625 -12.015625 10.15625 -12.015625 L 7.53125 -12.015625 L 7.53125 -1.765625 C 7.53125 -1.265625 7.363281 -0.84375 7.03125 -0.5 C 6.707031 -0.164062 6.289062 0 5.78125 0 C 5.28125 0 4.863281 -0.164062 4.53125 -0.5 C 4.207031 -0.84375 4.046875 -1.265625 4.046875 -1.765625 L 4.046875 -12.015625 L 2.484375 -12.015625 C 2.023438 -12.015625 1.640625 -12.160156 1.328125 -12.453125 C 1.023438 -12.753906 0.875 -13.132812 0.875 -13.59375 C 0.875 -14.0625 1.023438 -14.441406 1.328125 -14.734375 C 1.640625 -15.035156 2.023438 -15.1875 2.484375 -15.1875 L 4.046875 -15.1875 L 4.046875 -16.515625 C 4.046875 -17.960938 4.539062 -19.140625 5.53125 -20.046875 C 6.53125 -20.953125 7.96875 -21.40625 9.84375 -21.40625 C 10.550781 -21.40625 11.171875 -21.257812 11.703125 -20.96875 C 12.234375 -20.6875 12.5 -20.25 12.5 -19.65625 C 12.5 -19.1875 12.363281 -18.804688 12.09375 -18.515625 C 11.820312 -18.234375 11.492188 -18.09375 11.109375 -18.09375 C 11.015625 -18.09375 10.914062 -18.097656 10.8125 -18.109375 C 10.707031 -18.128906 10.59375 -18.148438 10.46875 -18.171875 C 10.007812 -18.285156 9.625 -18.34375 9.3125 -18.34375 Z M 9.3125 -18.34375 "/></g></g></g><g fill="#ffffff" fill-opacity="1"><g transform="translate(230.529346, 192.479637)"><g><path d="M 9.3125 -18.34375 C 8.65625 -18.34375 8.191406 -18.15625 7.921875 -17.78125 C 7.660156 -17.40625 7.53125 -16.992188 7.53125 -16.546875 L 7.53125 -15.1875 L 10.15625 -15.1875 C 10.625 -15.1875 11.007812 -15.035156 11.3125 -14.734375 C 11.625 -14.441406 11.78125 -14.0625 11.78125 -13.59375 C 11.78125 -13.132812 11.625 -12.753906 11.3125 -12.453125 C 11.007812 -12.160156 10.625 -12.015625 10.15625 -12.015625 L 7.53125 -12.015625 L 7.53125 -1.765625 C 7.53125 -1.265625 7.363281 -0.84375 7.03125 -0.5 C 6.707031 -0.164062 6.289062 0 5.78125 0 C 5.28125 0 4.863281 -0.164062 4.53125 -0.5 C 4.207031 -0.84375 4.046875 -1.265625 4.046875 -1.765625 L 4.046875 -12.015625 L 2.484375 -12.015625 C 2.023438 -12.015625 1.640625 -12.160156 1.328125 -12.453125 C 1.023438 -12.753906 0.875 -13.132812 0.875 -13.59375 C 0.875 -14.0625 1.023438 -14.441406 1.328125 -14.734375 C 1.640625 -15.035156 2.023438 -15.1875 2.484375 -15.1875 L 4.046875 -15.1875 L 4.046875 -16.515625 C 4.046875 -17.960938 4.539062 -19.140625 5.53125 -20.046875 C 6.53125 -20.953125 7.96875 -21.40625 9.84375 -21.40625 C 10.550781 -21.40625 11.171875 -21.257812 11.703125 -20.96875 C 12.234375 -20.6875 12.5 -20.25 12.5 -19.65625 C 12.5 -19.1875 12.363281 -18.804688 12.09375 -18.515625 C 11.820312 -18.234375 11.492188 -18.09375 11.109375 -18.09375 C 11.015625 -18.09375 10.914062 -18.097656 10.8125 -18.109375 C 10.707031 -18.128906 10.59375 -18.148438 10.46875 -18.171875 C 10.007812 -18.285156 9.625 -18.34375 9.3125 -18.34375 Z M 9.3125 -18.34375 "/></g></g></g><g fill="#ffffff" fill-opacity="1"><g transform="translate(243.173339, 192.479637)"><g><path d="M 15.765625 -8.109375 C 15.742188 -7.640625 15.5625 -7.257812 15.21875 -6.96875 C 14.875 -6.6875 14.46875 -6.546875 14 -6.546875 L 4.453125 -6.546875 C 4.679688 -5.398438 5.210938 -4.503906 6.046875 -3.859375 C 6.878906 -3.210938 7.816406 -2.890625 8.859375 -2.890625 C 9.648438 -2.890625 10.265625 -2.960938 10.703125 -3.109375 C 11.148438 -3.253906 11.503906 -3.40625 11.765625 -3.5625 C 12.023438 -3.726562 12.203125 -3.84375 12.296875 -3.90625 C 12.640625 -4.082031 12.96875 -4.171875 13.28125 -4.171875 C 13.6875 -4.171875 14.035156 -4.023438 14.328125 -3.734375 C 14.617188 -3.441406 14.765625 -3.101562 14.765625 -2.71875 C 14.765625 -2.195312 14.492188 -1.722656 13.953125 -1.296875 C 13.410156 -0.859375 12.6875 -0.484375 11.78125 -0.171875 C 10.875 0.140625 9.957031 0.296875 9.03125 0.296875 C 7.40625 0.296875 5.988281 -0.0390625 4.78125 -0.71875 C 3.582031 -1.394531 2.65625 -2.328125 2 -3.515625 C 1.34375 -4.703125 1.015625 -6.039062 1.015625 -7.53125 C 1.015625 -9.1875 1.359375 -10.640625 2.046875 -11.890625 C 2.742188 -13.148438 3.660156 -14.109375 4.796875 -14.765625 C 5.941406 -15.429688 7.160156 -15.765625 8.453125 -15.765625 C 9.722656 -15.765625 10.921875 -15.414062 12.046875 -14.71875 C 13.179688 -14.03125 14.082031 -13.097656 14.75 -11.921875 C 15.425781 -10.742188 15.765625 -9.472656 15.765625 -8.109375 Z M 8.453125 -12.59375 C 6.210938 -12.59375 4.890625 -11.539062 4.484375 -9.4375 L 12.0625 -9.4375 L 12.0625 -9.640625 C 11.988281 -10.453125 11.59375 -11.144531 10.875 -11.71875 C 10.164062 -12.300781 9.359375 -12.59375 8.453125 -12.59375 Z M 8.453125 -12.59375 "/></g></g></g><g fill="#ffffff" fill-opacity="1"><g transform="translate(260.533499, 192.479637)"><g><path d="M 15.765625 -8.109375 C 15.742188 -7.640625 15.5625 -7.257812 15.21875 -6.96875 C 14.875 -6.6875 14.46875 -6.546875 14 -6.546875 L 4.453125 -6.546875 C 4.679688 -5.398438 5.210938 -4.503906 6.046875 -3.859375 C 6.878906 -3.210938 7.816406 -2.890625 8.859375 -2.890625 C 9.648438 -2.890625 10.265625 -2.960938 10.703125 -3.109375 C 11.148438 -3.253906 11.503906 -3.40625 11.765625 -3.5625 C 12.023438 -3.726562 12.203125 -3.84375 12.296875 -3.90625 C 12.640625 -4.082031 12.96875 -4.171875 13.28125 -4.171875 C 13.6875 -4.171875 14.035156 -4.023438 14.328125 -3.734375 C 14.617188 -3.441406 14.765625 -3.101562 14.765625 -2.71875 C 14.765625 -2.195312 14.492188 -1.722656 13.953125 -1.296875 C 13.410156 -0.859375 12.6875 -0.484375 11.78125 -0.171875 C 10.875 0.140625 9.957031 0.296875 9.03125 0.296875 C 7.40625 0.296875 5.988281 -0.0390625 4.78125 -0.71875 C 3.582031 -1.394531 2.65625 -2.328125 2 -3.515625 C 1.34375 -4.703125 1.015625 -6.039062 1.015625 -7.53125 C 1.015625 -9.1875 1.359375 -10.640625 2.046875 -11.890625 C 2.742188 -13.148438 3.660156 -14.109375 4.796875 -14.765625 C 5.941406 -15.429688 7.160156 -15.765625 8.453125 -15.765625 C 9.722656 -15.765625 10.921875 -15.414062 12.046875 -14.71875 C 13.179688 -14.03125 14.082031 -13.097656 14.75 -11.921875 C 15.425781 -10.742188 15.765625 -9.472656 15.765625 -8.109375 Z M 8.453125 -12.59375 C 6.210938 -12.59375 4.890625 -11.539062 4.484375 -9.4375 L 12.0625 -9.4375 L 12.0625 -9.640625 C 11.988281 -10.453125 11.59375 -11.144531 10.875 -11.71875 C 10.164062 -12.300781 9.359375 -12.59375 8.453125 -12.59375 Z M 8.453125 -12.59375 "/></g></g></g><g fill="#ffffff" fill-opacity="1"><g transform="translate(180.821405, 222.479635)"><g><path d="M 16.34375 -19.265625 C 16.945312 -18.960938 17.25 -18.472656 17.25 -17.796875 C 17.25 -17.390625 17.101562 -16.992188 16.8125 -16.609375 C 16.5 -16.203125 16.101562 -16 15.625 -16 C 15.300781 -16 14.972656 -16.085938 14.640625 -16.265625 C 13.691406 -16.703125 12.671875 -16.921875 11.578125 -16.921875 C 10.222656 -16.921875 9.046875 -16.632812 8.046875 -16.0625 C 7.046875 -15.5 6.273438 -14.703125 5.734375 -13.671875 C 5.191406 -12.640625 4.921875 -11.457031 4.921875 -10.125 C 4.921875 -7.851562 5.53125 -6.128906 6.75 -4.953125 C 7.976562 -3.773438 9.585938 -3.1875 11.578125 -3.1875 C 12.753906 -3.1875 13.773438 -3.40625 14.640625 -3.84375 C 14.984375 -4 15.289062 -4.078125 15.5625 -4.078125 C 16.070312 -4.078125 16.5 -3.863281 16.84375 -3.4375 C 17.132812 -3.070312 17.28125 -2.675781 17.28125 -2.25 C 17.28125 -1.945312 17.203125 -1.671875 17.046875 -1.421875 C 16.890625 -1.171875 16.664062 -0.976562 16.375 -0.84375 C 14.875 -0.0820312 13.273438 0.296875 11.578125 0.296875 C 9.679688 0.296875 7.941406 -0.101562 6.359375 -0.90625 C 4.785156 -1.707031 3.523438 -2.890625 2.578125 -4.453125 C 1.628906 -6.015625 1.15625 -7.90625 1.15625 -10.125 C 1.15625 -12.09375 1.601562 -13.859375 2.5 -15.421875 C 3.394531 -16.984375 4.632812 -18.203125 6.21875 -19.078125 C 7.800781 -19.960938 9.585938 -20.40625 11.578125 -20.40625 C 13.296875 -20.40625 14.882812 -20.023438 16.34375 -19.265625 Z M 16.34375 -19.265625 "/></g></g></g><g fill="#ffffff" fill-opacity="1"><g transform="translate(199.541444, 222.479635)"><g><path d="M 5.640625 -1.765625 C 5.640625 -1.265625 5.46875 -0.84375 5.125 -0.5 C 4.789062 -0.164062 4.375 0 3.875 0 C 3.394531 0 2.988281 -0.164062 2.65625 -0.5 C 2.332031 -0.84375 2.171875 -1.265625 2.171875 -1.765625 L 2.171875 -19.65625 C 2.171875 -20.15625 2.335938 -20.570312 2.671875 -20.90625 C 3.015625 -21.238281 3.4375 -21.40625 3.9375 -21.40625 C 4.414062 -21.40625 4.816406 -21.238281 5.140625 -20.90625 C 5.472656 -20.570312 5.640625 -20.15625 5.640625 -19.65625 Z M 5.640625 -1.765625 "/></g></g></g><g fill="#ffffff" fill-opacity="1"><g transform="translate(207.932219, 222.479635)"><g><path d="M 14.40625 -15.765625 C 14.90625 -15.765625 15.316406 -15.597656 15.640625 -15.265625 C 15.972656 -14.941406 16.140625 -14.519531 16.140625 -14 L 16.140625 -1.765625 C 16.140625 -1.265625 15.972656 -0.84375 15.640625 -0.5 C 15.316406 -0.164062 14.90625 0 14.40625 0 C 13.90625 0 13.492188 -0.160156 13.171875 -0.484375 C 12.859375 -0.816406 12.691406 -1.234375 12.671875 -1.734375 C 12.191406 -1.171875 11.539062 -0.691406 10.71875 -0.296875 C 9.894531 0.0976562 9.03125 0.296875 8.125 0.296875 C 6.800781 0.296875 5.597656 -0.046875 4.515625 -0.734375 C 3.429688 -1.421875 2.578125 -2.367188 1.953125 -3.578125 C 1.328125 -4.796875 1.015625 -6.175781 1.015625 -7.71875 C 1.015625 -9.269531 1.320312 -10.65625 1.9375 -11.875 C 2.550781 -13.101562 3.394531 -14.054688 4.46875 -14.734375 C 5.539062 -15.421875 6.722656 -15.765625 8.015625 -15.765625 C 8.941406 -15.765625 9.804688 -15.597656 10.609375 -15.265625 C 11.421875 -14.929688 12.109375 -14.503906 12.671875 -13.984375 L 12.671875 -14 C 12.671875 -14.507812 12.832031 -14.929688 13.15625 -15.265625 C 13.488281 -15.597656 13.90625 -15.765625 14.40625 -15.765625 Z M 8.5625 -2.890625 C 9.820312 -2.890625 10.84375 -3.347656 11.625 -4.265625 C 12.414062 -5.179688 12.8125 -6.332031 12.8125 -7.71875 C 12.8125 -9.113281 12.414062 -10.273438 11.625 -11.203125 C 10.84375 -12.128906 9.820312 -12.59375 8.5625 -12.59375 C 7.332031 -12.59375 6.320312 -12.128906 5.53125 -11.203125 C 4.738281 -10.273438 4.34375 -9.113281 4.34375 -7.71875 C 4.34375 -6.332031 4.734375 -5.179688 5.515625 -4.265625 C 6.296875 -3.347656 7.3125 -2.890625 8.5625 -2.890625 Z M 8.5625 -2.890625 "/></g></g></g><g fill="#ffffff" fill-opacity="1"><g transform="translate(226.536525, 222.479635)"><g><path d="M 0.984375 -2.40625 C 0.804688 -2.632812 0.71875 -2.921875 0.71875 -3.265625 C 0.71875 -3.765625 0.96875 -4.191406 1.46875 -4.546875 C 1.738281 -4.710938 2.019531 -4.796875 2.3125 -4.796875 C 2.71875 -4.796875 3.101562 -4.613281 3.46875 -4.25 C 4.050781 -3.65625 4.65625 -3.210938 5.28125 -2.921875 C 5.90625 -2.628906 6.660156 -2.484375 7.546875 -2.484375 C 9.054688 -2.546875 9.8125 -3.117188 9.8125 -4.203125 C 9.8125 -4.753906 9.554688 -5.175781 9.046875 -5.46875 C 8.535156 -5.757812 7.738281 -6.050781 6.65625 -6.34375 C 5.539062 -6.644531 4.628906 -6.945312 3.921875 -7.25 C 3.210938 -7.5625 2.601562 -8.03125 2.09375 -8.65625 C 1.582031 -9.289062 1.328125 -10.140625 1.328125 -11.203125 C 1.328125 -12.128906 1.59375 -12.929688 2.125 -13.609375 C 2.65625 -14.296875 3.347656 -14.828125 4.203125 -15.203125 C 5.066406 -15.578125 5.976562 -15.765625 6.9375 -15.765625 C 7.925781 -15.765625 8.910156 -15.582031 9.890625 -15.21875 C 10.878906 -14.851562 11.65625 -14.3125 12.21875 -13.59375 C 12.46875 -13.289062 12.59375 -12.945312 12.59375 -12.5625 C 12.59375 -12.113281 12.40625 -11.742188 12.03125 -11.453125 C 11.769531 -11.242188 11.460938 -11.140625 11.109375 -11.140625 C 10.679688 -11.140625 10.332031 -11.273438 10.0625 -11.546875 C 9.71875 -11.972656 9.269531 -12.3125 8.71875 -12.5625 C 8.175781 -12.8125 7.554688 -12.9375 6.859375 -12.9375 C 5.390625 -12.9375 4.65625 -12.40625 4.65625 -11.34375 C 4.65625 -10.914062 4.789062 -10.570312 5.0625 -10.3125 C 5.332031 -10.050781 5.675781 -9.847656 6.09375 -9.703125 C 6.507812 -9.554688 7.09375 -9.378906 7.84375 -9.171875 C 8.882812 -8.878906 9.75 -8.578125 10.4375 -8.265625 C 11.132812 -7.960938 11.722656 -7.492188 12.203125 -6.859375 C 12.691406 -6.222656 12.9375 -5.382812 12.9375 -4.34375 C 12.9375 -3.394531 12.65625 -2.566406 12.09375 -1.859375 C 11.53125 -1.160156 10.8125 -0.625 9.9375 -0.25 C 9.0625 0.113281 8.160156 0.296875 7.234375 0.296875 C 5.960938 0.296875 4.773438 0.0820312 3.671875 -0.34375 C 2.578125 -0.769531 1.679688 -1.457031 0.984375 -2.40625 Z M 0.984375 -2.40625 "/></g></g></g><g fill="#ffffff" fill-opacity="1"><g transform="translate(241.061205, 222.479635)"><g><path d="M 0.984375 -2.40625 C 0.804688 -2.632812 0.71875 -2.921875 0.71875 -3.265625 C 0.71875 -3.765625 0.96875 -4.191406 1.46875 -4.546875 C 1.738281 -4.710938 2.019531 -4.796875 2.3125 -4.796875 C 2.71875 -4.796875 3.101562 -4.613281 3.46875 -4.25 C 4.050781 -3.65625 4.65625 -3.210938 5.28125 -2.921875 C 5.90625 -2.628906 6.660156 -2.484375 7.546875 -2.484375 C 9.054688 -2.546875 9.8125 -3.117188 9.8125 -4.203125 C 9.8125 -4.753906 9.554688 -5.175781 9.046875 -5.46875 C 8.535156 -5.757812 7.738281 -6.050781 6.65625 -6.34375 C 5.539062 -6.644531 4.628906 -6.945312 3.921875 -7.25 C 3.210938 -7.5625 2.601562 -8.03125 2.09375 -8.65625 C 1.582031 -9.289062 1.328125 -10.140625 1.328125 -11.203125 C 1.328125 -12.128906 1.59375 -12.929688 2.125 -13.609375 C 2.65625 -14.296875 3.347656 -14.828125 4.203125 -15.203125 C 5.066406 -15.578125 5.976562 -15.765625 6.9375 -15.765625 C 7.925781 -15.765625 8.910156 -15.582031 9.890625 -15.21875 C 10.878906 -14.851562 11.65625 -14.3125 12.21875 -13.59375 C 12.46875 -13.289062 12.59375 -12.945312 12.59375 -12.5625 C 12.59375 -12.113281 12.40625 -11.742188 12.03125 -11.453125 C 11.769531 -11.242188 11.460938 -11.140625 11.109375 -11.140625 C 10.679688 -11.140625 10.332031 -11.273438 10.0625 -11.546875 C 9.71875 -11.972656 9.269531 -12.3125 8.71875 -12.5625 C 8.175781 -12.8125 7.554688 -12.9375 6.859375 -12.9375 C 5.390625 -12.9375 4.65625 -12.40625 4.65625 -11.34375 C 4.65625 -10.914062 4.789062 -10.570312 5.0625 -10.3125 C 5.332031 -10.050781 5.675781 -9.847656 6.09375 -9.703125 C 6.507812 -9.554688 7.09375 -9.378906 7.84375 -9.171875 C 8.882812 -8.878906 9.75 -8.578125 10.4375 -8.265625 C 11.132812 -7.960938 11.722656 -7.492188 12.203125 -6.859375 C 12.691406 -6.222656 12.9375 -5.382812 12.9375 -4.34375 C 12.9375 -3.394531 12.65625 -2.566406 12.09375 -1.859375 C 11.53125 -1.160156 10.8125 -0.625 9.9375 -0.25 C 9.0625 0.113281 8.160156 0.296875 7.234375 0.296875 C 5.960938 0.296875 4.773438 0.0820312 3.671875 -0.34375 C 2.578125 -0.769531 1.679688 -1.457031 0.984375 -2.40625 Z M 0.984375 -2.40625 "/></g></g></g></svg>