<svg xmlns="http://www.w3.org/2000/svg" xmlns:xlink="http://www.w3.org/1999/xlink" width="500" zoomAndPan="magnify" viewBox="0 0 375 374.999991" height="500" preserveAspectRatio="xMidYMid meet" version="1.0"><defs><clipPath id="3270c3351a"><path d="M 120.933594 175 L 254.851562 175 L 254.851562 285.597656 L 120.933594 285.597656 Z M 120.933594 175 " clip-rule="nonzero"/></clipPath></defs><path stroke-linecap="round" transform="matrix(0.000000000000000046, -0.750141, 0.75, 0.000000000000000046, 85.1224, 374.968219)" fill="none" stroke-linejoin="miter" d="M 136.499746 136.498268 L 363.415543 136.498268 " stroke="#d6860d" stroke-width="273" stroke-opacity="1" stroke-miterlimit="4"/><path fill="#ffffff" d="M 161.113281 151.269531 C 160.714844 151.269531 160.328125 151.210938 159.929688 151.097656 C 157.542969 150.441406 156.15625 147.980469 156.8125 145.605469 C 156.886719 145.332031 157.085938 144.859375 157.214844 144.601562 C 161.144531 136.648438 164.128906 125.964844 160.730469 119.796875 C 160.101562 118.652344 159.613281 118.253906 158.714844 117.539062 C 157.542969 116.609375 155.941406 115.335938 154.511719 112.660156 C 150.839844 105.707031 152.027344 96.550781 158.070312 85.449219 C 159.257812 83.277344 161.957031 82.488281 164.128906 83.664062 C 166.300781 84.851562 167.085938 87.566406 165.914062 89.726562 C 161.457031 97.910156 160.242188 104.390625 162.414062 108.46875 C 162.957031 109.5 163.386719 109.855469 164.273438 110.542969 C 165.445312 111.488281 167.058594 112.761719 168.558594 115.476562 C 174.746094 126.722656 168.273438 142.371094 165.214844 148.582031 L 165.203125 148.582031 C 164.5 150.226562 162.871094 151.269531 161.113281 151.269531 " fill-opacity="1" fill-rule="nonzero"/><path fill="#ffffff" d="M 187.894531 151.269531 C 187.507812 151.269531 187.105469 151.210938 186.707031 151.097656 C 184.335938 150.441406 182.933594 147.980469 183.59375 145.605469 C 183.664062 145.332031 183.863281 144.859375 183.992188 144.601562 C 187.921875 136.648438 190.90625 125.964844 187.523438 119.796875 C 186.894531 118.652344 186.394531 118.253906 185.492188 117.539062 C 184.320312 116.609375 182.71875 115.335938 181.304688 112.660156 C 177.617188 105.707031 178.820312 96.550781 184.863281 85.449219 C 186.035156 83.277344 188.75 82.488281 190.90625 83.664062 C 193.082031 84.851562 193.878906 87.566406 192.695312 89.726562 C 188.25 97.910156 187.035156 104.390625 189.195312 108.46875 C 189.738281 109.5 190.179688 109.855469 191.050781 110.542969 C 192.222656 111.488281 193.835938 112.761719 195.335938 115.476562 C 201.523438 126.722656 195.066406 142.371094 191.992188 148.582031 C 191.28125 150.226562 189.652344 151.269531 187.894531 151.269531 " fill-opacity="1" fill-rule="nonzero"/><path fill="#ffffff" d="M 214.6875 151.269531 C 214.285156 151.269531 213.886719 151.210938 213.484375 151.097656 C 211.113281 150.441406 209.726562 147.980469 210.382812 145.605469 C 210.457031 145.332031 210.65625 144.859375 210.785156 144.601562 C 214.714844 136.648438 217.699219 125.964844 214.300781 119.796875 C 213.671875 118.652344 213.183594 118.253906 212.285156 117.539062 C 211.113281 116.609375 209.511719 115.335938 208.082031 112.660156 C 204.398438 105.707031 205.597656 96.550781 211.640625 85.449219 C 212.828125 83.277344 215.542969 82.488281 217.699219 83.664062 C 219.859375 84.851562 220.660156 87.566406 219.488281 89.726562 C 215.027344 97.910156 213.8125 104.390625 215.972656 108.46875 C 216.527344 109.5 216.957031 109.855469 217.84375 110.542969 C 219.015625 111.488281 220.628906 112.761719 222.117188 115.476562 C 228.316406 126.722656 221.84375 142.371094 218.785156 148.582031 L 218.773438 148.582031 C 218.070312 150.226562 216.441406 151.269531 214.6875 151.269531 " fill-opacity="1" fill-rule="nonzero"/><g clip-path="url(#3270c3351a)"><path fill="#ffffff" d="M 254.851562 197.460938 C 254.851562 223.8125 244.191406 247.703125 226.960938 264.996094 L 226.960938 277.742188 C 226.960938 282.078125 223.445312 285.597656 219.101562 285.597656 L 156.683594 285.597656 C 152.355469 285.597656 148.839844 282.078125 148.839844 277.742188 L 148.839844 264.996094 C 131.59375 247.703125 120.933594 223.8125 120.933594 197.460938 C 120.933594 192.113281 121.375 186.875 122.21875 181.769531 C 122.847656 177.949219 126.089844 175.117188 129.964844 175.117188 L 245.820312 175.117188 C 249.695312 175.117188 252.953125 177.949219 253.582031 181.769531 C 254.425781 186.875 254.851562 192.113281 254.851562 197.460938 " fill-opacity="1" fill-rule="nonzero"/></g></svg>