<svg xmlns="http://www.w3.org/2000/svg" xmlns:xlink="http://www.w3.org/1999/xlink" width="500" zoomAndPan="magnify" viewBox="0 0 375 374.999991" height="500" preserveAspectRatio="xMidYMid meet" version="1.0"><defs><clipPath id="121da12a6c"><path d="M 120.933594 175 L 254.851562 175 L 254.851562 285.628906 L 120.933594 285.628906 Z M 120.933594 175 " clip-rule="nonzero"/></clipPath></defs><path stroke-linecap="round" transform="matrix(0.000000000000000046, -0.750141, 0.75, 0.000000000000000046, 84.7483, 374.998276)" fill="none" stroke-linejoin="miter" d="M 136.998062 137.002276 L 362.908839 137.002276 " stroke="#d6860d" stroke-width="274" stroke-opacity="1" stroke-miterlimit="4"/><path fill="#000000" d="M 161.113281 151.300781 C 160.714844 151.300781 160.328125 151.242188 159.929688 151.128906 C 157.542969 150.472656 156.15625 148.011719 156.8125 145.636719 C 156.886719 145.363281 157.085938 144.890625 157.214844 144.632812 C 161.144531 136.679688 164.128906 125.996094 160.730469 119.828125 C 160.101562 118.683594 159.613281 118.285156 158.714844 117.570312 C 157.542969 116.640625 155.941406 115.367188 154.511719 112.691406 C 150.839844 105.738281 152.027344 96.582031 158.070312 85.480469 C 159.257812 83.308594 161.957031 82.519531 164.128906 83.695312 C 166.300781 84.882812 167.085938 87.597656 165.914062 89.757812 C 161.457031 97.941406 160.242188 104.421875 162.414062 108.5 C 162.957031 109.527344 163.386719 109.886719 164.273438 110.574219 C 165.445312 111.519531 167.058594 112.789062 168.558594 115.507812 C 174.746094 126.753906 168.273438 142.402344 165.214844 148.613281 L 165.203125 148.613281 C 164.5 150.257812 162.871094 151.300781 161.113281 151.300781 " fill-opacity="1" fill-rule="nonzero"/><path fill="#000000" d="M 187.894531 151.300781 C 187.507812 151.300781 187.105469 151.242188 186.707031 151.128906 C 184.335938 150.472656 182.933594 148.011719 183.589844 145.636719 C 183.664062 145.363281 183.863281 144.890625 183.992188 144.632812 C 187.921875 136.679688 190.90625 125.996094 187.519531 119.828125 C 186.890625 118.683594 186.390625 118.285156 185.492188 117.570312 C 184.320312 116.640625 182.71875 115.367188 181.304688 112.691406 C 177.617188 105.738281 178.820312 96.582031 184.863281 85.480469 C 186.035156 83.308594 188.75 82.519531 190.90625 83.695312 C 193.078125 84.882812 193.878906 87.597656 192.695312 89.757812 C 188.25 97.941406 187.035156 104.421875 189.191406 108.5 C 189.734375 109.527344 190.179688 109.886719 191.050781 110.574219 C 192.222656 111.519531 193.835938 112.789062 195.335938 115.507812 C 201.523438 126.753906 195.066406 142.402344 191.992188 148.613281 C 191.28125 150.257812 189.648438 151.300781 187.894531 151.300781 " fill-opacity="1" fill-rule="nonzero"/><path fill="#000000" d="M 214.683594 151.300781 C 214.285156 151.300781 213.886719 151.242188 213.484375 151.128906 C 211.113281 150.472656 209.726562 148.011719 210.382812 145.636719 C 210.457031 145.363281 210.65625 144.890625 210.785156 144.632812 C 214.714844 136.679688 217.699219 125.996094 214.300781 119.828125 C 213.671875 118.683594 213.183594 118.285156 212.285156 117.570312 C 211.113281 116.640625 209.511719 115.367188 208.082031 112.691406 C 204.398438 105.738281 205.597656 96.582031 211.640625 85.480469 C 212.828125 83.308594 215.542969 82.519531 217.699219 83.695312 C 219.859375 84.882812 220.660156 87.597656 219.488281 89.757812 C 215.027344 97.941406 213.8125 104.421875 215.972656 108.5 C 216.527344 109.527344 216.957031 109.886719 217.84375 110.574219 C 219.015625 111.519531 220.628906 112.789062 222.117188 115.507812 C 228.316406 126.753906 221.84375 142.402344 218.785156 148.613281 L 218.773438 148.613281 C 218.070312 150.257812 216.441406 151.300781 214.683594 151.300781 " fill-opacity="1" fill-rule="nonzero"/><g clip-path="url(#121da12a6c)"><path fill="#000000" d="M 254.851562 197.492188 C 254.851562 223.84375 244.191406 247.734375 226.960938 265.027344 L 226.960938 277.773438 C 226.960938 282.109375 223.445312 285.628906 219.101562 285.628906 L 156.683594 285.628906 C 152.355469 285.628906 148.839844 282.109375 148.839844 277.773438 L 148.839844 265.027344 C 131.59375 247.734375 120.933594 223.84375 120.933594 197.492188 C 120.933594 192.140625 121.375 186.90625 122.21875 181.800781 C 122.847656 177.980469 126.089844 175.148438 129.964844 175.148438 L 245.820312 175.148438 C 249.695312 175.148438 252.953125 177.980469 253.582031 181.800781 C 254.425781 186.90625 254.851562 192.140625 254.851562 197.492188 " fill-opacity="1" fill-rule="nonzero"/></g></svg>