<svg xmlns="http://www.w3.org/2000/svg" xmlns:xlink="http://www.w3.org/1999/xlink" width="500" zoomAndPan="magnify" viewBox="0 0 375 374.999991" height="500" preserveAspectRatio="xMidYMid meet" version="1.0"><defs><clipPath id="1b1e41fb60"><path d="M 120.921875 175 L 254.84375 175 L 254.84375 285.582031 L 120.921875 285.582031 Z M 120.921875 175 " clip-rule="nonzero"/></clipPath></defs><path stroke-linecap="round" transform="matrix(0.000000000000000046, -0.750023, 0.75, 0.000000000000000046, 84.747604, 374.997631)" fill="none" stroke-linejoin="miter" d="M 136.997784 136.997996 L 362.990748 136.997996 " stroke="#ffffff" stroke-width="274" stroke-opacity="1" stroke-miterlimit="4"/><path fill="#d6860d" d="M 161.105469 151.253906 C 160.703125 151.253906 160.316406 151.195312 159.917969 151.082031 C 157.53125 150.425781 156.144531 147.964844 156.804688 145.589844 C 156.875 145.316406 157.074219 144.84375 157.203125 144.585938 C 161.132812 136.632812 164.117188 125.949219 160.71875 119.78125 C 160.089844 118.636719 159.601562 118.238281 158.703125 117.523438 C 157.53125 116.59375 155.929688 115.320312 154.503906 112.644531 C 150.828125 105.691406 152.015625 96.535156 158.058594 85.433594 C 159.246094 83.261719 161.945312 82.472656 164.117188 83.648438 C 166.289062 84.835938 167.078125 87.550781 165.90625 89.710938 C 161.445312 97.894531 160.230469 104.375 162.402344 108.453125 C 162.945312 109.480469 163.375 109.839844 164.261719 110.527344 C 165.433594 111.472656 167.046875 112.742188 168.546875 115.460938 C 174.734375 126.707031 168.261719 142.355469 165.203125 148.566406 L 165.191406 148.566406 C 164.492188 150.210938 162.863281 151.253906 161.105469 151.253906 " fill-opacity="1" fill-rule="nonzero"/><path fill="#d6860d" d="M 187.882812 151.253906 C 187.496094 151.253906 187.097656 151.195312 186.695312 151.082031 C 184.324219 150.425781 182.921875 147.964844 183.582031 145.589844 C 183.652344 145.316406 183.851562 144.84375 183.980469 144.585938 C 187.910156 136.632812 190.898438 125.949219 187.511719 119.78125 C 186.882812 118.636719 186.382812 118.238281 185.480469 117.523438 C 184.308594 116.59375 182.710938 115.320312 181.292969 112.644531 C 177.609375 105.691406 178.808594 96.535156 184.851562 85.433594 C 186.023438 83.261719 188.738281 82.472656 190.898438 83.648438 C 193.070312 84.835938 193.871094 87.550781 192.683594 89.710938 C 188.238281 97.894531 187.023438 104.375 189.183594 108.453125 C 189.726562 109.480469 190.167969 109.839844 191.039062 110.527344 C 192.210938 111.472656 193.828125 112.742188 195.328125 115.460938 C 201.515625 126.707031 195.054688 142.355469 191.984375 148.566406 C 191.269531 150.210938 189.640625 151.253906 187.882812 151.253906 " fill-opacity="1" fill-rule="nonzero"/><path fill="#d6860d" d="M 214.675781 151.253906 C 214.273438 151.253906 213.875 151.195312 213.472656 151.082031 C 211.101562 150.425781 209.714844 147.964844 210.375 145.589844 C 210.445312 145.316406 210.644531 144.84375 210.773438 144.585938 C 214.703125 136.632812 217.691406 125.949219 214.289062 119.78125 C 213.660156 118.636719 213.175781 118.238281 212.273438 117.523438 C 211.101562 116.59375 209.5 115.320312 208.074219 112.644531 C 204.386719 105.691406 205.585938 96.535156 211.632812 85.433594 C 212.816406 83.261719 215.53125 82.472656 217.691406 83.648438 C 219.847656 84.835938 220.648438 87.550781 219.476562 89.710938 C 215.015625 97.894531 213.804688 104.375 215.960938 108.453125 C 216.519531 109.480469 216.945312 109.839844 217.832031 110.527344 C 219.003906 111.472656 220.617188 112.742188 222.105469 115.460938 C 228.308594 126.707031 221.832031 142.355469 218.777344 148.566406 L 218.761719 148.566406 C 218.0625 150.210938 216.433594 151.253906 214.675781 151.253906 " fill-opacity="1" fill-rule="nonzero"/><g clip-path="url(#1b1e41fb60)"><path fill="#d6860d" d="M 254.84375 197.445312 C 254.84375 223.796875 244.183594 247.6875 226.949219 264.980469 L 226.949219 277.726562 C 226.949219 282.0625 223.433594 285.582031 219.089844 285.582031 L 156.675781 285.582031 C 152.34375 285.582031 148.828125 282.0625 148.828125 277.726562 L 148.828125 264.980469 C 131.582031 247.6875 120.921875 223.796875 120.921875 197.445312 C 120.921875 192.09375 121.363281 186.859375 122.207031 181.753906 C 122.835938 177.933594 126.082031 175.101562 129.953125 175.101562 L 245.8125 175.101562 C 249.683594 175.101562 252.941406 177.933594 253.570312 181.753906 C 254.414062 186.859375 254.84375 192.09375 254.84375 197.445312 " fill-opacity="1" fill-rule="nonzero"/></g></svg>