<svg width="257" height="40" viewBox="0 0 257 40" fill="none" xmlns="http://www.w3.org/2000/svg">
<path d="M59.2812 25.9583V13.1667" stroke="#D6860D" stroke-width="14.4386" stroke-linecap="round"/>
<mask id="mask0_10_2" style="mask-type:luminance" maskUnits="userSpaceOnUse" x="56" y="11" width="3" height="7">
<path d="M56 11.6719H58.6667V17.3333H56V11.6719Z" fill="white"/>
</mask>
<g mask="url(#mask0_10_2)">
<path d="M57.3021 16.599C57.2708 16.599 57.2448 16.5937 57.2135 16.5833C57.0417 16.5365 56.9427 16.3594 56.9896 16.1927C56.9948 16.1719 57.0104 16.1406 57.0208 16.1198C57.3021 15.5521 57.5156 14.7865 57.2708 14.3437C57.2292 14.2656 57.1927 14.2344 57.125 14.1823C57.0417 14.1198 56.9271 14.026 56.8229 13.8333C56.5573 13.3385 56.6458 12.6823 57.0781 11.8906C57.1667 11.7344 57.3594 11.6771 57.5156 11.7604C57.6771 11.849 57.7292 12.0417 57.6458 12.1979C57.3229 12.7812 57.2396 13.2448 57.3958 13.5365C57.4323 13.6094 57.4635 13.6354 57.526 13.6823C57.6146 13.75 57.7292 13.8437 57.8385 14.0365C58.2865 14.8437 57.8177 15.9583 57.599 16.4062H57.5937C57.5469 16.5208 57.4271 16.599 57.3021 16.599Z" fill="black"/>
</g>
<mask id="mask1_10_2" style="mask-type:luminance" maskUnits="userSpaceOnUse" x="57" y="11" width="3" height="7">
<path d="M57.3333 11.6719H60V17.3333H57.3333V11.6719Z" fill="white"/>
</mask>
<g mask="url(#mask1_10_2)">
<path d="M59.2344 16.599C59.2083 16.599 59.1771 16.5937 59.1511 16.5833C58.9792 16.5365 58.875 16.3594 58.9219 16.1927C58.9271 16.1719 58.9427 16.1406 58.9531 16.1198C59.2344 15.5521 59.4531 14.7865 59.2083 14.3437C59.1615 14.2656 59.125 14.2344 59.0625 14.1823C58.974 14.1198 58.8594 14.026 58.7604 13.8333C58.4948 13.3385 58.5781 12.6823 59.0156 11.8906C59.099 11.7344 59.2969 11.6771 59.4531 11.7604C59.6094 11.849 59.6667 12.0417 59.5833 12.1979C59.2604 12.7812 59.1719 13.2448 59.3281 13.5365C59.3698 13.6094 59.4011 13.6354 59.4636 13.6823C59.5469 13.75 59.6615 13.8437 59.7708 14.0365C60.2188 14.8437 59.75 15.9583 59.5313 16.4062C59.4792 16.5208 59.3594 16.599 59.2344 16.599Z" fill="black"/>
</g>
<mask id="mask2_10_2" style="mask-type:luminance" maskUnits="userSpaceOnUse" x="60" y="11" width="3" height="7">
<path d="M60 11.6719H62.6667V17.3333H60V11.6719Z" fill="white"/>
</mask>
<g mask="url(#mask2_10_2)">
<path d="M61.1667 16.599C61.1406 16.599 61.1094 16.5937 61.0833 16.5833C60.9115 16.5365 60.8125 16.3594 60.8594 16.1927C60.8646 16.1719 60.8802 16.1406 60.8854 16.1198C61.1719 15.5521 61.3854 14.7865 61.1406 14.3437C61.0938 14.2656 61.0625 14.2344 60.9948 14.1823C60.9115 14.1198 60.7969 14.026 60.6927 13.8333C60.4271 13.3385 60.5104 12.6823 60.9479 11.8906C61.0365 11.7344 61.2292 11.6771 61.3854 11.7604C61.5417 11.849 61.599 12.0417 61.5156 12.1979C61.1927 12.7812 61.1042 13.2448 61.2604 13.5365C61.3021 13.6094 61.3333 13.6354 61.3958 13.6823C61.4792 13.75 61.599 13.8437 61.7031 14.0365C62.151 14.8437 61.6875 15.9583 61.4635 16.4062C61.4115 16.5208 61.2969 16.599 61.1667 16.599Z" fill="black"/>
</g>
<mask id="mask3_10_2" style="mask-type:luminance" maskUnits="userSpaceOnUse" x="54" y="18" width="11" height="9">
<path d="M54.4011 18.2708H64.0677V26.2031H54.4011V18.2708Z" fill="white"/>
</mask>
<g mask="url(#mask3_10_2)">
<path d="M64.0677 19.901C64.0677 21.7865 63.3021 23.4948 62.0573 24.7292V25.6406C62.0573 25.9531 61.8021 26.2031 61.4896 26.2031H56.9792C56.6667 26.2031 56.4115 25.9531 56.4115 25.6406V24.7292C55.1667 23.4948 54.4011 21.7865 54.4011 19.901C54.4011 19.5156 54.4323 19.1406 54.4896 18.776C54.5365 18.5052 54.7709 18.3021 55.0521 18.3021H63.4167C63.6979 18.3021 63.9323 18.5052 63.9792 18.776C64.0365 19.1406 64.0677 19.5156 64.0677 19.901Z" fill="black"/>
</g>
<path d="M82.749 14.7816C83.0251 14.7816 83.249 14.865 83.4157 15.0316C83.5928 15.1983 83.6865 15.417 83.6865 15.6775C83.6865 15.9587 83.5928 16.1775 83.4157 16.3441C83.249 16.5004 83.0251 16.5733 82.749 16.5733H80.3115V24.6983C80.3115 24.9639 80.2126 25.1879 80.0199 25.365C79.822 25.5473 79.5824 25.6358 79.2907 25.6358C78.999 25.6358 78.7595 25.5473 78.5824 25.365C78.4001 25.1879 78.3115 24.9639 78.3115 24.6983V16.5733H75.874C75.5928 16.5733 75.3636 16.49 75.1865 16.3233C75.0043 16.1566 74.9157 15.9431 74.9157 15.6775C74.9157 15.417 75.0043 15.1983 75.1865 15.0316C75.3636 14.865 75.5928 14.7816 75.874 14.7816H82.749Z" fill="white"/>
<path d="M89.8271 17.1983C90.8532 17.1983 91.5615 17.5108 91.9521 18.1358C92.3532 18.7608 92.5563 19.6254 92.5563 20.7191V24.6983C92.5563 24.9639 92.4625 25.1879 92.2855 25.365C92.1032 25.5473 91.8792 25.6358 91.6188 25.6358C91.3532 25.6358 91.1292 25.5473 90.9521 25.365C90.7698 25.1879 90.6813 24.9639 90.6813 24.6983V20.7191C90.6813 20.1514 90.5667 19.7087 90.348 19.3858C90.124 19.0525 89.7334 18.8858 89.1813 18.8858C88.6084 18.8858 88.1605 19.0629 87.8271 19.4066C87.5042 19.7556 87.348 20.1931 87.348 20.7191V24.6983C87.348 24.9639 87.2542 25.1879 87.0771 25.365C86.8948 25.5473 86.6709 25.6358 86.4105 25.6358C86.1448 25.6358 85.9209 25.5473 85.7438 25.365C85.5615 25.1879 85.473 24.9639 85.473 24.6983V15.115C85.473 14.8389 85.5615 14.6098 85.7438 14.4275C85.9209 14.2504 86.1448 14.1566 86.4105 14.1566C86.6709 14.1566 86.8948 14.2504 87.0771 14.4275C87.2542 14.6098 87.348 14.8389 87.348 15.115V18.5316C87.624 18.1566 87.973 17.8441 88.3896 17.5941C88.8167 17.3337 89.2959 17.1983 89.8271 17.1983Z" fill="white"/>
<path d="M102.306 21.3025C102.306 21.5525 102.207 21.7556 102.014 21.9066C101.832 22.0629 101.618 22.1358 101.368 22.1358H96.2642C96.3892 22.7504 96.6652 23.2296 97.0975 23.5733C97.5402 23.9223 98.0454 24.0941 98.6184 24.0941C99.035 24.0941 99.358 24.0525 99.5975 23.9691C99.8319 23.8858 100.019 23.8025 100.16 23.7191C100.295 23.6358 100.394 23.5837 100.452 23.5525C100.644 23.4587 100.816 23.4066 100.973 23.4066C101.191 23.4066 101.379 23.4848 101.535 23.6358C101.686 23.7921 101.764 23.9691 101.764 24.1775C101.764 24.4587 101.624 24.7139 101.348 24.9483C101.056 25.1879 100.665 25.3858 100.181 25.5525C99.6913 25.7035 99.2017 25.7816 98.7017 25.7816C97.8371 25.7816 97.0819 25.6046 96.4309 25.24C95.7902 24.8806 95.2902 24.3858 94.9309 23.7608C94.5819 23.1254 94.41 22.4066 94.41 21.615C94.41 20.7296 94.5975 19.9483 94.9725 19.2816C95.3475 18.6046 95.8319 18.0889 96.4309 17.74C97.0402 17.3806 97.6913 17.1983 98.3892 17.1983C99.0663 17.1983 99.7069 17.3858 100.306 17.7608C100.915 18.1254 101.4 18.6254 101.764 19.2608C102.124 19.8858 102.306 20.5681 102.306 21.3025ZM98.3892 18.8858C97.1913 18.8858 96.483 19.4483 96.2642 20.5733H100.327V20.4691C100.285 20.0421 100.066 19.6723 99.6809 19.365C99.3059 19.0473 98.8736 18.8858 98.3892 18.8858Z" fill="white"/>
<path d="M116.572 15.3025C116.89 15.4691 117.051 15.7348 117.051 16.0941C117.051 16.3181 116.973 16.5316 116.822 16.74C116.655 16.9639 116.447 17.0733 116.197 17.0733C116.015 17.0733 115.832 17.0264 115.655 16.9275C115.155 16.6931 114.614 16.5733 114.03 16.5733C113.306 16.5733 112.676 16.7296 112.134 17.0316C111.593 17.3389 111.176 17.7712 110.884 18.3233C110.593 18.865 110.447 19.5004 110.447 20.2191C110.447 21.4275 110.77 22.3546 111.426 22.99C112.093 23.615 112.957 23.9275 114.03 23.9275C114.655 23.9275 115.197 23.8129 115.655 23.5733C115.848 23.49 116.015 23.4483 116.155 23.4483C116.431 23.4483 116.661 23.5629 116.843 23.7816C116.994 23.99 117.072 24.2087 117.072 24.4275C117.072 24.5941 117.03 24.7504 116.947 24.8858C116.864 25.0108 116.744 25.1098 116.593 25.1775C115.786 25.5837 114.931 25.7816 114.03 25.7816C113.015 25.7816 112.082 25.5733 111.239 25.1566C110.39 24.7296 109.707 24.0941 109.197 23.2608C108.697 22.4171 108.447 21.4014 108.447 20.2191C108.447 19.1671 108.681 18.2191 109.155 17.3858C109.64 16.5421 110.306 15.8806 111.155 15.4066C111.999 14.9379 112.957 14.6983 114.03 14.6983C114.947 14.6983 115.791 14.9014 116.572 15.3025Z" fill="white"/>
<path d="M126.832 21.49C126.832 22.3233 126.645 23.0681 126.27 23.7191C125.895 24.3754 125.379 24.8806 124.728 25.24C124.087 25.6046 123.379 25.7816 122.603 25.7816C121.822 25.7816 121.113 25.6046 120.478 25.24C119.837 24.8806 119.332 24.3754 118.957 23.7191C118.582 23.0681 118.395 22.3233 118.395 21.49C118.395 20.6723 118.582 19.9379 118.957 19.2816C119.332 18.615 119.837 18.1046 120.478 17.74C121.113 17.3806 121.822 17.1983 122.603 17.1983C123.379 17.1983 124.087 17.3806 124.728 17.74C125.379 18.1046 125.895 18.615 126.27 19.2816C126.645 19.9379 126.832 20.6723 126.832 21.49ZM124.957 21.49C124.957 20.99 124.853 20.5473 124.645 20.1566C124.436 19.7556 124.15 19.4431 123.791 19.2191C123.442 19.0004 123.046 18.8858 122.603 18.8858C122.171 18.8858 121.775 19.0004 121.416 19.2191C121.067 19.4431 120.78 19.7556 120.561 20.1566C120.353 20.5473 120.249 20.99 120.249 21.49C120.249 22.0056 120.353 22.4587 120.561 22.8441C120.78 23.2348 121.067 23.5421 121.416 23.7608C121.775 23.9848 122.171 24.0941 122.603 24.0941C123.046 24.0941 123.442 23.9848 123.791 23.7608C124.15 23.5421 124.436 23.2348 124.645 22.8441C124.853 22.4587 124.957 22.0056 124.957 21.49Z" fill="white"/>
<path d="M132.683 15.8025C132.318 15.8025 132.063 15.9066 131.912 16.115C131.771 16.3129 131.703 16.5264 131.703 16.7608V17.49H133.12C133.37 17.49 133.578 17.5733 133.745 17.74C133.912 17.8962 133.995 18.0941 133.995 18.3441C133.995 18.5941 133.912 18.8025 133.745 18.9691C133.578 19.1254 133.37 19.1983 133.12 19.1983H131.703V24.6983C131.703 24.9639 131.61 25.1879 131.433 25.365C131.266 25.5473 131.047 25.6358 130.787 25.6358C130.505 25.6358 130.276 25.5473 130.099 25.365C129.933 25.1879 129.849 24.9639 129.849 24.6983V19.1983H129.016C128.766 19.1983 128.558 19.1254 128.391 18.9691C128.224 18.8025 128.141 18.5941 128.141 18.3441C128.141 18.0941 128.224 17.8962 128.391 17.74C128.558 17.5733 128.766 17.49 129.016 17.49H129.849V16.7816C129.849 16.0056 130.11 15.3754 130.641 14.8858C131.183 14.4014 131.953 14.1566 132.953 14.1566C133.328 14.1566 133.651 14.24 133.933 14.4066C134.224 14.5629 134.37 14.7973 134.37 15.115C134.37 15.365 134.297 15.5681 134.162 15.7191C134.021 15.8754 133.849 15.9483 133.641 15.9483C133.584 15.9483 133.526 15.9483 133.474 15.9483C133.417 15.9379 133.354 15.9223 133.287 15.9066C133.037 15.8389 132.834 15.8025 132.683 15.8025Z" fill="white"/>
<path d="M139.458 15.8025C139.093 15.8025 138.838 15.9066 138.687 16.115C138.546 16.3129 138.479 16.5264 138.479 16.7608V17.49H139.895C140.145 17.49 140.354 17.5733 140.52 17.74C140.687 17.8962 140.77 18.0941 140.77 18.3441C140.77 18.5941 140.687 18.8025 140.52 18.9691C140.354 19.1254 140.145 19.1983 139.895 19.1983H138.479V24.6983C138.479 24.9639 138.385 25.1879 138.208 25.365C138.041 25.5473 137.822 25.6358 137.562 25.6358C137.281 25.6358 137.052 25.5473 136.874 25.365C136.708 25.1879 136.624 24.9639 136.624 24.6983V19.1983H135.791C135.541 19.1983 135.333 19.1254 135.166 18.9691C134.999 18.8025 134.916 18.5941 134.916 18.3441C134.916 18.0941 134.999 17.8962 135.166 17.74C135.333 17.5733 135.541 17.49 135.791 17.49H136.624V16.7816C136.624 16.0056 136.885 15.3754 137.416 14.8858C137.958 14.4014 138.729 14.1566 139.729 14.1566C140.104 14.1566 140.427 14.24 140.708 14.4066C140.999 14.5629 141.145 14.7973 141.145 15.115C141.145 15.365 141.072 15.5681 140.937 15.7191C140.796 15.8754 140.624 15.9483 140.416 15.9483C140.359 15.9483 140.302 15.9483 140.249 15.9483C140.192 15.9379 140.13 15.9223 140.062 15.9066C139.812 15.8389 139.609 15.8025 139.458 15.8025Z" fill="white"/>
<path d="M149.671 21.3025C149.671 21.5525 149.572 21.7556 149.379 21.9066C149.197 22.0629 148.983 22.1358 148.733 22.1358H143.629C143.754 22.7504 144.03 23.2296 144.462 23.5733C144.905 23.9223 145.41 24.0941 145.983 24.0941C146.4 24.0941 146.723 24.0525 146.962 23.9691C147.197 23.8858 147.384 23.8025 147.525 23.7191C147.66 23.6358 147.759 23.5837 147.816 23.5525C148.009 23.4587 148.181 23.4066 148.337 23.4066C148.556 23.4066 148.743 23.4848 148.9 23.6358C149.051 23.7921 149.129 23.9691 149.129 24.1775C149.129 24.4587 148.988 24.7139 148.712 24.9483C148.421 25.1879 148.03 25.3858 147.546 25.5525C147.056 25.7035 146.566 25.7816 146.066 25.7816C145.202 25.7816 144.447 25.6046 143.796 25.24C143.155 24.8806 142.655 24.3858 142.296 23.7608C141.947 23.1254 141.775 22.4066 141.775 21.615C141.775 20.7296 141.962 19.9483 142.337 19.2816C142.712 18.6046 143.197 18.0889 143.796 17.74C144.405 17.3806 145.056 17.1983 145.754 17.1983C146.431 17.1983 147.072 17.3858 147.671 17.7608C148.28 18.1254 148.764 18.6254 149.129 19.2608C149.488 19.8858 149.671 20.5681 149.671 21.3025ZM145.754 18.8858C144.556 18.8858 143.848 19.4483 143.629 20.5733H147.691V20.4691C147.65 20.0421 147.431 19.6723 147.046 19.365C146.671 19.0473 146.238 18.8858 145.754 18.8858Z" fill="white"/>
<path d="M158.973 21.3025C158.973 21.5525 158.874 21.7556 158.681 21.9066C158.499 22.0629 158.285 22.1358 158.035 22.1358H152.931C153.056 22.7504 153.332 23.2296 153.765 23.5733C154.207 23.9223 154.713 24.0941 155.285 24.0941C155.702 24.0941 156.025 24.0525 156.265 23.9691C156.499 23.8858 156.686 23.8025 156.827 23.7191C156.963 23.6358 157.061 23.5837 157.119 23.5525C157.311 23.4587 157.483 23.4066 157.64 23.4066C157.858 23.4066 158.046 23.4848 158.202 23.6358C158.353 23.7921 158.431 23.9691 158.431 24.1775C158.431 24.4587 158.291 24.7139 158.015 24.9483C157.723 25.1879 157.332 25.3858 156.848 25.5525C156.358 25.7035 155.869 25.7816 155.369 25.7816C154.504 25.7816 153.749 25.6046 153.098 25.24C152.457 24.8806 151.957 24.3858 151.598 23.7608C151.249 23.1254 151.077 22.4066 151.077 21.615C151.077 20.7296 151.265 19.9483 151.64 19.2816C152.015 18.6046 152.499 18.0889 153.098 17.74C153.707 17.3806 154.358 17.1983 155.056 17.1983C155.733 17.1983 156.374 17.3858 156.973 17.7608C157.582 18.1254 158.067 18.6254 158.431 19.2608C158.791 19.8858 158.973 20.5681 158.973 21.3025ZM155.056 18.8858C153.858 18.8858 153.15 19.4483 152.931 20.5733H156.994V20.4691C156.952 20.0421 156.733 19.6723 156.348 19.365C155.973 19.0473 155.541 18.8858 155.056 18.8858Z" fill="white"/>
<path d="M173.239 15.3025C173.557 15.4691 173.718 15.7348 173.718 16.0941C173.718 16.3181 173.64 16.5316 173.489 16.74C173.322 16.9639 173.114 17.0733 172.864 17.0733C172.682 17.0733 172.499 17.0264 172.322 16.9275C171.822 16.6931 171.281 16.5733 170.697 16.5733C169.973 16.5733 169.343 16.7296 168.801 17.0316C168.26 17.3389 167.843 17.7712 167.551 18.3233C167.26 18.865 167.114 19.5004 167.114 20.2191C167.114 21.4275 167.437 22.3546 168.093 22.99C168.76 23.615 169.624 23.9275 170.697 23.9275C171.322 23.9275 171.864 23.8129 172.322 23.5733C172.515 23.49 172.682 23.4483 172.822 23.4483C173.098 23.4483 173.328 23.5629 173.51 23.7816C173.661 23.99 173.739 24.2087 173.739 24.4275C173.739 24.5941 173.697 24.7504 173.614 24.8858C173.531 25.0108 173.411 25.1098 173.26 25.1775C172.453 25.5837 171.598 25.7816 170.697 25.7816C169.682 25.7816 168.749 25.5733 167.906 25.1566C167.057 24.7296 166.374 24.0941 165.864 23.2608C165.364 22.4171 165.114 21.4014 165.114 20.2191C165.114 19.1671 165.348 18.2191 165.822 17.3858C166.307 16.5421 166.973 15.8806 167.822 15.4066C168.666 14.9379 169.624 14.6983 170.697 14.6983C171.614 14.6983 172.458 14.9014 173.239 15.3025Z" fill="white"/>
<path d="M177.541 24.6983C177.541 24.9639 177.447 25.1879 177.27 25.365C177.088 25.5473 176.864 25.6358 176.603 25.6358C176.338 25.6358 176.114 25.5473 175.937 25.365C175.77 25.1879 175.687 24.9639 175.687 24.6983V15.115C175.687 14.8389 175.775 14.6098 175.958 14.4275C176.135 14.2504 176.359 14.1566 176.624 14.1566C176.885 14.1566 177.103 14.2504 177.27 14.4275C177.447 14.6098 177.541 14.8389 177.541 15.115V24.6983Z" fill="white"/>
<path d="M186.745 17.1983C187.006 17.1983 187.225 17.2921 187.391 17.4691C187.568 17.6358 187.662 17.8598 187.662 18.1358V24.6983C187.662 24.9639 187.568 25.1879 187.391 25.365C187.225 25.5473 187.006 25.6358 186.745 25.6358C186.464 25.6358 186.245 25.5525 186.079 25.3858C185.912 25.2087 185.818 24.9796 185.808 24.6983C185.542 25.0056 185.188 25.2608 184.745 25.4691C184.313 25.6775 183.855 25.7816 183.37 25.7816C182.662 25.7816 182.016 25.6046 181.433 25.24C180.85 24.8806 180.391 24.3754 180.058 23.7191C179.725 23.0681 179.558 22.3233 179.558 21.49C179.558 20.6723 179.725 19.9379 180.058 19.2816C180.391 18.615 180.839 18.1046 181.412 17.74C181.98 17.3806 182.61 17.1983 183.308 17.1983C183.808 17.1983 184.271 17.2921 184.704 17.4691C185.131 17.6514 185.501 17.8806 185.808 18.1566V18.1358C185.808 17.8754 185.891 17.6514 186.058 17.4691C186.235 17.2921 186.464 17.1983 186.745 17.1983ZM183.6 24.0941C184.277 24.0941 184.829 23.8546 185.245 23.365C185.672 22.865 185.891 22.24 185.891 21.49C185.891 20.7556 185.672 20.1358 185.245 19.6358C184.829 19.1358 184.277 18.8858 183.6 18.8858C182.943 18.8858 182.402 19.1358 181.975 19.6358C181.558 20.1358 181.35 20.7556 181.35 21.49C181.35 22.24 181.558 22.865 181.975 23.365C182.391 23.8546 182.933 24.0941 183.6 24.0941Z" fill="white"/>
<path d="M189.506 24.3441C189.423 24.2191 189.381 24.0681 189.381 23.8858C189.381 23.6254 189.511 23.3962 189.777 23.1983C189.912 23.1046 190.069 23.0525 190.235 23.0525C190.444 23.0525 190.642 23.1566 190.839 23.365C191.157 23.6879 191.485 23.9223 191.819 24.0733C192.152 24.2296 192.553 24.3025 193.027 24.3025C193.829 24.2764 194.235 23.9691 194.235 23.3858C194.235 23.0941 194.095 22.8754 193.819 22.7191C193.553 22.5525 193.131 22.3962 192.548 22.24C191.949 22.0733 191.464 21.9066 191.089 21.74C190.714 21.5733 190.386 21.3233 190.11 20.99C189.829 20.6566 189.694 20.2087 189.694 19.6358C189.694 19.1358 189.829 18.7087 190.11 18.3441C190.402 17.9848 190.777 17.7087 191.235 17.5108C191.694 17.3025 192.183 17.1983 192.714 17.1983C193.24 17.1983 193.761 17.2973 194.277 17.49C194.803 17.6879 195.22 17.9691 195.527 18.3441C195.662 18.5108 195.735 18.6983 195.735 18.9066C195.735 19.1462 195.636 19.3389 195.444 19.49C195.287 19.615 195.121 19.6775 194.944 19.6775C194.704 19.6775 194.517 19.6046 194.381 19.4483C194.199 19.2296 193.954 19.0473 193.652 18.9066C193.36 18.7712 193.027 18.6983 192.652 18.6983C191.871 18.6983 191.485 18.9848 191.485 19.5525C191.485 19.7921 191.553 19.9796 191.694 20.115C191.845 20.2556 192.032 20.365 192.256 20.4483C192.475 20.5212 192.787 20.6098 193.194 20.7191C193.746 20.8754 194.204 21.0316 194.569 21.1983C194.944 21.365 195.261 21.6254 195.527 21.9691C195.787 22.3025 195.923 22.7504 195.923 23.3025C195.923 23.8181 195.767 24.2608 195.464 24.6358C195.157 25.0108 194.767 25.2973 194.298 25.49C193.839 25.6827 193.36 25.7816 192.86 25.7816C192.178 25.7816 191.537 25.6671 190.944 25.4483C190.36 25.2296 189.881 24.8598 189.506 24.3441Z" fill="white"/>
<path d="M197.289 24.3441C197.206 24.2191 197.164 24.0681 197.164 23.8858C197.164 23.6254 197.294 23.3962 197.56 23.1983C197.695 23.1046 197.852 23.0525 198.018 23.0525C198.227 23.0525 198.425 23.1566 198.622 23.365C198.94 23.6879 199.268 23.9223 199.602 24.0733C199.935 24.2296 200.336 24.3025 200.81 24.3025C201.612 24.2764 202.018 23.9691 202.018 23.3858C202.018 23.0941 201.878 22.8754 201.602 22.7191C201.336 22.5525 200.914 22.3962 200.331 22.24C199.732 22.0733 199.247 21.9066 198.872 21.74C198.497 21.5733 198.169 21.3233 197.893 20.99C197.612 20.6566 197.477 20.2087 197.477 19.6358C197.477 19.1358 197.612 18.7087 197.893 18.3441C198.185 17.9848 198.56 17.7087 199.018 17.5108C199.477 17.3025 199.966 17.1983 200.497 17.1983C201.023 17.1983 201.544 17.2973 202.06 17.49C202.586 17.6879 203.003 17.9691 203.31 18.3441C203.445 18.5108 203.518 18.6983 203.518 18.9066C203.518 19.1462 203.419 19.3389 203.227 19.49C203.07 19.615 202.904 19.6775 202.727 19.6775C202.487 19.6775 202.3 19.6046 202.164 19.4483C201.982 19.2296 201.737 19.0473 201.435 18.9066C201.143 18.7712 200.81 18.6983 200.435 18.6983C199.654 18.6983 199.268 18.9848 199.268 19.5525C199.268 19.7921 199.336 19.9796 199.477 20.115C199.628 20.2556 199.815 20.365 200.039 20.4483C200.258 20.5212 200.57 20.6098 200.977 20.7191C201.529 20.8754 201.987 21.0316 202.352 21.1983C202.727 21.365 203.044 21.6254 203.31 21.9691C203.57 22.3025 203.706 22.7504 203.706 23.3025C203.706 23.8181 203.55 24.2608 203.247 24.6358C202.94 25.0108 202.55 25.2973 202.081 25.49C201.622 25.6827 201.143 25.7816 200.643 25.7816C199.961 25.7816 199.32 25.6671 198.727 25.4483C198.143 25.2296 197.664 24.8598 197.289 24.3441Z" fill="white"/>
</svg>
