<svg xmlns="http://www.w3.org/2000/svg" xmlns:xlink="http://www.w3.org/1999/xlink" width="257" zoomAndPan="magnify" viewBox="0 0 192.75 30.000001" height="40" preserveAspectRatio="xMidYMid meet" version="1.0"><defs><g/><clipPath id="4f9040f1f0"><path d="M 42 8.753906 L 44 8.753906 L 44 13 L 42 13 Z M 42 8.753906 " clip-rule="nonzero"/></clipPath><clipPath id="408399fbd7"><path d="M 43 8.753906 L 45 8.753906 L 45 13 L 43 13 Z M 43 8.753906 " clip-rule="nonzero"/></clipPath><clipPath id="abbb06b996"><path d="M 45 8.753906 L 47 8.753906 L 47 13 L 45 13 Z M 45 8.753906 " clip-rule="nonzero"/></clipPath><clipPath id="615d918304"><path d="M 40.800781 13.703125 L 48.050781 13.703125 L 48.050781 19.652344 L 40.800781 19.652344 Z M 40.800781 13.703125 " clip-rule="nonzero"/></clipPath></defs><path stroke-linecap="round" transform="matrix(0.000000000000000044, -0.717143, 0.726748, 0.000000000000000045, 39.01096, 24.845689)" fill="none" stroke-linejoin="miter" d="M 7.49772 7.499131 L 20.875453 7.499131 " stroke="#ffffff" stroke-width="15" stroke-opacity="1" stroke-miterlimit="4"/><g clip-path="url(#4f9040f1f0)"><path fill="#d6860d" d="M 42.976562 12.449219 C 42.953125 12.449219 42.933594 12.445312 42.910156 12.4375 C 42.78125 12.402344 42.707031 12.269531 42.742188 12.144531 C 42.746094 12.128906 42.757812 12.105469 42.765625 12.089844 C 42.976562 11.664062 43.136719 11.089844 42.953125 10.757812 C 42.921875 10.699219 42.894531 10.675781 42.84375 10.636719 C 42.78125 10.589844 42.695312 10.519531 42.617188 10.375 C 42.417969 10.003906 42.484375 9.511719 42.808594 8.917969 C 42.875 8.800781 43.019531 8.757812 43.136719 8.820312 C 43.257812 8.886719 43.296875 9.03125 43.234375 9.148438 C 42.992188 9.585938 42.929688 9.933594 43.046875 10.152344 C 43.074219 10.207031 43.097656 10.226562 43.144531 10.261719 C 43.210938 10.3125 43.296875 10.382812 43.378906 10.527344 C 43.714844 11.132812 43.363281 11.96875 43.199219 12.304688 L 43.195312 12.304688 C 43.160156 12.390625 43.070312 12.449219 42.976562 12.449219 " fill-opacity="1" fill-rule="nonzero"/></g><g clip-path="url(#408399fbd7)"><path fill="#d6860d" d="M 44.425781 12.449219 C 44.40625 12.449219 44.382812 12.445312 44.363281 12.4375 C 44.234375 12.402344 44.15625 12.269531 44.191406 12.144531 C 44.195312 12.128906 44.207031 12.105469 44.214844 12.089844 C 44.425781 11.664062 44.589844 11.089844 44.40625 10.757812 C 44.371094 10.699219 44.34375 10.675781 44.296875 10.636719 C 44.230469 10.589844 44.144531 10.519531 44.070312 10.375 C 43.871094 10.003906 43.933594 9.511719 44.261719 8.917969 C 44.324219 8.800781 44.472656 8.757812 44.589844 8.820312 C 44.707031 8.886719 44.75 9.03125 44.6875 9.148438 C 44.445312 9.585938 44.378906 9.933594 44.496094 10.152344 C 44.527344 10.207031 44.550781 10.226562 44.597656 10.261719 C 44.660156 10.3125 44.746094 10.382812 44.828125 10.527344 C 45.164062 11.132812 44.8125 11.96875 44.648438 12.304688 C 44.609375 12.390625 44.519531 12.449219 44.425781 12.449219 " fill-opacity="1" fill-rule="nonzero"/></g><g clip-path="url(#abbb06b996)"><path fill="#d6860d" d="M 45.875 12.449219 C 45.855469 12.449219 45.832031 12.445312 45.8125 12.4375 C 45.683594 12.402344 45.609375 12.269531 45.644531 12.144531 C 45.648438 12.128906 45.660156 12.105469 45.664062 12.089844 C 45.878906 11.664062 46.039062 11.089844 45.855469 10.757812 C 45.820312 10.699219 45.796875 10.675781 45.746094 10.636719 C 45.683594 10.589844 45.597656 10.519531 45.519531 10.375 C 45.320312 10.003906 45.382812 9.511719 45.710938 8.917969 C 45.777344 8.800781 45.921875 8.757812 46.039062 8.820312 C 46.15625 8.886719 46.199219 9.03125 46.136719 9.148438 C 45.894531 9.585938 45.828125 9.933594 45.945312 10.152344 C 45.976562 10.207031 46 10.226562 46.046875 10.261719 C 46.109375 10.3125 46.199219 10.382812 46.277344 10.527344 C 46.613281 11.132812 46.265625 11.96875 46.097656 12.304688 C 46.058594 12.390625 45.972656 12.449219 45.875 12.449219 " fill-opacity="1" fill-rule="nonzero"/></g><g clip-path="url(#615d918304)"><path fill="#d6860d" d="M 48.050781 14.925781 C 48.050781 16.339844 47.476562 17.621094 46.542969 18.546875 L 46.542969 19.230469 C 46.542969 19.464844 46.351562 19.652344 46.117188 19.652344 L 42.734375 19.652344 C 42.5 19.652344 42.308594 19.464844 42.308594 19.230469 L 42.308594 18.546875 C 41.375 17.621094 40.800781 16.339844 40.800781 14.925781 C 40.800781 14.636719 40.824219 14.355469 40.867188 14.082031 C 40.902344 13.878906 41.078125 13.726562 41.289062 13.726562 L 47.5625 13.726562 C 47.773438 13.726562 47.949219 13.878906 47.984375 14.082031 C 48.027344 14.355469 48.050781 14.636719 48.050781 14.925781 " fill-opacity="1" fill-rule="nonzero"/></g><g fill="#ffffff" fill-opacity="1"><g transform="translate(55.843032, 19.226843)"><g><path d="M 6.21875 -8.140625 C 6.425781 -8.140625 6.59375 -8.078125 6.71875 -7.953125 C 6.851562 -7.828125 6.921875 -7.664062 6.921875 -7.46875 C 6.921875 -7.257812 6.851562 -7.09375 6.71875 -6.96875 C 6.59375 -6.851562 6.425781 -6.796875 6.21875 -6.796875 L 4.390625 -6.796875 L 4.390625 -0.703125 C 4.390625 -0.503906 4.316406 -0.335938 4.171875 -0.203125 C 4.023438 -0.0664062 3.84375 0 3.625 0 C 3.40625 0 3.226562 -0.0664062 3.09375 -0.203125 C 2.957031 -0.335938 2.890625 -0.503906 2.890625 -0.703125 L 2.890625 -6.796875 L 1.0625 -6.796875 C 0.851562 -6.796875 0.679688 -6.859375 0.546875 -6.984375 C 0.410156 -7.109375 0.34375 -7.269531 0.34375 -7.46875 C 0.34375 -7.664062 0.410156 -7.828125 0.546875 -7.953125 C 0.679688 -8.078125 0.851562 -8.140625 1.0625 -8.140625 Z M 6.21875 -8.140625 "/></g></g></g><g fill="#ffffff" fill-opacity="1"><g transform="translate(63.354713, 19.226843)"><g><path d="M 4.015625 -6.328125 C 4.785156 -6.328125 5.316406 -6.09375 5.609375 -5.625 C 5.910156 -5.15625 6.0625 -4.507812 6.0625 -3.6875 L 6.0625 -0.703125 C 6.0625 -0.503906 5.992188 -0.335938 5.859375 -0.203125 C 5.722656 -0.0664062 5.554688 0 5.359375 0 C 5.160156 0 4.992188 -0.0664062 4.859375 -0.203125 C 4.722656 -0.335938 4.65625 -0.503906 4.65625 -0.703125 L 4.65625 -3.6875 C 4.65625 -4.113281 4.570312 -4.445312 4.40625 -4.6875 C 4.238281 -4.9375 3.945312 -5.0625 3.53125 -5.0625 C 3.101562 -5.0625 2.765625 -4.929688 2.515625 -4.671875 C 2.273438 -4.410156 2.15625 -4.082031 2.15625 -3.6875 L 2.15625 -0.703125 C 2.15625 -0.503906 2.085938 -0.335938 1.953125 -0.203125 C 1.816406 -0.0664062 1.648438 0 1.453125 0 C 1.253906 0 1.085938 -0.0664062 0.953125 -0.203125 C 0.816406 -0.335938 0.75 -0.503906 0.75 -0.703125 L 0.75 -7.890625 C 0.75 -8.097656 0.816406 -8.269531 0.953125 -8.40625 C 1.085938 -8.539062 1.253906 -8.609375 1.453125 -8.609375 C 1.648438 -8.609375 1.816406 -8.539062 1.953125 -8.40625 C 2.085938 -8.269531 2.15625 -8.097656 2.15625 -7.890625 L 2.15625 -5.328125 C 2.363281 -5.609375 2.625 -5.84375 2.9375 -6.03125 C 3.257812 -6.226562 3.617188 -6.328125 4.015625 -6.328125 Z M 4.015625 -6.328125 "/></g></g></g><g fill="#ffffff" fill-opacity="1"><g transform="translate(70.401275, 19.226843)"><g><path d="M 6.328125 -3.25 C 6.328125 -3.0625 6.253906 -2.910156 6.109375 -2.796875 C 5.972656 -2.679688 5.8125 -2.625 5.625 -2.625 L 1.796875 -2.625 C 1.890625 -2.164062 2.097656 -1.804688 2.421875 -1.546875 C 2.753906 -1.285156 3.132812 -1.15625 3.5625 -1.15625 C 3.875 -1.15625 4.117188 -1.1875 4.296875 -1.25 C 4.472656 -1.3125 4.613281 -1.375 4.71875 -1.4375 C 4.820312 -1.5 4.894531 -1.539062 4.9375 -1.5625 C 5.082031 -1.632812 5.210938 -1.671875 5.328125 -1.671875 C 5.492188 -1.671875 5.632812 -1.613281 5.75 -1.5 C 5.863281 -1.382812 5.921875 -1.25 5.921875 -1.09375 C 5.921875 -0.882812 5.816406 -0.691406 5.609375 -0.515625 C 5.390625 -0.335938 5.097656 -0.1875 4.734375 -0.0625 C 4.367188 0.0507812 4 0.109375 3.625 0.109375 C 2.976562 0.109375 2.410156 -0.0234375 1.921875 -0.296875 C 1.441406 -0.566406 1.066406 -0.9375 0.796875 -1.40625 C 0.535156 -1.882812 0.40625 -2.421875 0.40625 -3.015625 C 0.40625 -3.679688 0.546875 -4.265625 0.828125 -4.765625 C 1.109375 -5.273438 1.472656 -5.660156 1.921875 -5.921875 C 2.378906 -6.191406 2.867188 -6.328125 3.390625 -6.328125 C 3.898438 -6.328125 4.378906 -6.1875 4.828125 -5.90625 C 5.285156 -5.632812 5.648438 -5.257812 5.921875 -4.78125 C 6.191406 -4.3125 6.328125 -3.800781 6.328125 -3.25 Z M 3.390625 -5.0625 C 2.492188 -5.0625 1.960938 -4.640625 1.796875 -3.796875 L 4.84375 -3.796875 L 4.84375 -3.875 C 4.8125 -4.195312 4.648438 -4.472656 4.359375 -4.703125 C 4.078125 -4.941406 3.753906 -5.0625 3.390625 -5.0625 Z M 3.390625 -5.0625 "/></g></g></g><g fill="#ffffff" fill-opacity="1"><g transform="translate(77.378064, 19.226843)"><g/></g></g><g fill="#ffffff" fill-opacity="1"><g transform="translate(80.866461, 19.226843)"><g><path d="M 6.5625 -7.75 C 6.800781 -7.625 6.921875 -7.425781 6.921875 -7.15625 C 6.921875 -6.988281 6.863281 -6.828125 6.75 -6.671875 C 6.625 -6.503906 6.46875 -6.421875 6.28125 -6.421875 C 6.144531 -6.421875 6.007812 -6.457031 5.875 -6.53125 C 5.5 -6.707031 5.09375 -6.796875 4.65625 -6.796875 C 4.113281 -6.796875 3.640625 -6.679688 3.234375 -6.453125 C 2.828125 -6.222656 2.515625 -5.898438 2.296875 -5.484375 C 2.078125 -5.078125 1.96875 -4.601562 1.96875 -4.0625 C 1.96875 -3.15625 2.210938 -2.460938 2.703125 -1.984375 C 3.203125 -1.515625 3.851562 -1.28125 4.65625 -1.28125 C 5.125 -1.28125 5.53125 -1.367188 5.875 -1.546875 C 6.019531 -1.609375 6.144531 -1.640625 6.25 -1.640625 C 6.457031 -1.640625 6.628906 -1.554688 6.765625 -1.390625 C 6.878906 -1.234375 6.9375 -1.070312 6.9375 -0.90625 C 6.9375 -0.78125 6.90625 -0.664062 6.84375 -0.5625 C 6.78125 -0.46875 6.691406 -0.394531 6.578125 -0.34375 C 5.972656 -0.0390625 5.332031 0.109375 4.65625 0.109375 C 3.894531 0.109375 3.195312 -0.046875 2.5625 -0.359375 C 1.925781 -0.679688 1.414062 -1.15625 1.03125 -1.78125 C 0.65625 -2.414062 0.46875 -3.175781 0.46875 -4.0625 C 0.46875 -4.851562 0.644531 -5.5625 1 -6.1875 C 1.363281 -6.820312 1.863281 -7.316406 2.5 -7.671875 C 3.132812 -8.023438 3.851562 -8.203125 4.65625 -8.203125 C 5.34375 -8.203125 5.976562 -8.050781 6.5625 -7.75 Z M 6.5625 -7.75 "/></g></g></g><g fill="#ffffff" fill-opacity="1"><g transform="translate(88.389763, 19.226843)"><g><path d="M 6.734375 -3.109375 C 6.734375 -2.484375 6.59375 -1.925781 6.3125 -1.4375 C 6.03125 -0.945312 5.644531 -0.566406 5.15625 -0.296875 C 4.675781 -0.0234375 4.144531 0.109375 3.5625 0.109375 C 2.976562 0.109375 2.445312 -0.0234375 1.96875 -0.296875 C 1.488281 -0.566406 1.109375 -0.945312 0.828125 -1.4375 C 0.546875 -1.925781 0.40625 -2.484375 0.40625 -3.109375 C 0.40625 -3.722656 0.546875 -4.273438 0.828125 -4.765625 C 1.109375 -5.265625 1.488281 -5.648438 1.96875 -5.921875 C 2.445312 -6.191406 2.976562 -6.328125 3.5625 -6.328125 C 4.144531 -6.328125 4.675781 -6.191406 5.15625 -5.921875 C 5.644531 -5.648438 6.03125 -5.265625 6.3125 -4.765625 C 6.59375 -4.273438 6.734375 -3.722656 6.734375 -3.109375 Z M 5.328125 -3.109375 C 5.328125 -3.484375 5.25 -3.816406 5.09375 -4.109375 C 4.9375 -4.410156 4.722656 -4.644531 4.453125 -4.8125 C 4.191406 -4.976562 3.894531 -5.0625 3.5625 -5.0625 C 3.238281 -5.0625 2.941406 -4.976562 2.671875 -4.8125 C 2.410156 -4.644531 2.195312 -4.410156 2.03125 -4.109375 C 1.875 -3.816406 1.796875 -3.484375 1.796875 -3.109375 C 1.796875 -2.722656 1.875 -2.382812 2.03125 -2.09375 C 2.195312 -1.800781 2.410156 -1.570312 2.671875 -1.40625 C 2.941406 -1.238281 3.238281 -1.15625 3.5625 -1.15625 C 3.894531 -1.15625 4.191406 -1.238281 4.453125 -1.40625 C 4.722656 -1.570312 4.9375 -1.800781 5.09375 -2.09375 C 5.25 -2.382812 5.328125 -2.722656 5.328125 -3.109375 Z M 5.328125 -3.109375 "/></g></g></g><g fill="#ffffff" fill-opacity="1"><g transform="translate(95.761907, 19.226843)"><g><path d="M 3.75 -7.375 C 3.476562 -7.375 3.285156 -7.296875 3.171875 -7.140625 C 3.066406 -6.992188 3.015625 -6.832031 3.015625 -6.65625 L 3.015625 -6.109375 L 4.078125 -6.109375 C 4.265625 -6.109375 4.421875 -6.046875 4.546875 -5.921875 C 4.671875 -5.804688 4.734375 -5.65625 4.734375 -5.46875 C 4.734375 -5.28125 4.671875 -5.125 4.546875 -5 C 4.421875 -4.882812 4.265625 -4.828125 4.078125 -4.828125 L 3.015625 -4.828125 L 3.015625 -0.703125 C 3.015625 -0.503906 2.945312 -0.335938 2.8125 -0.203125 C 2.6875 -0.0664062 2.523438 0 2.328125 0 C 2.117188 0 1.945312 -0.0664062 1.8125 -0.203125 C 1.6875 -0.335938 1.625 -0.503906 1.625 -0.703125 L 1.625 -4.828125 L 1 -4.828125 C 0.8125 -4.828125 0.65625 -4.882812 0.53125 -5 C 0.40625 -5.125 0.34375 -5.28125 0.34375 -5.46875 C 0.34375 -5.65625 0.40625 -5.804688 0.53125 -5.921875 C 0.65625 -6.046875 0.8125 -6.109375 1 -6.109375 L 1.625 -6.109375 L 1.625 -6.640625 C 1.625 -7.222656 1.820312 -7.695312 2.21875 -8.0625 C 2.625 -8.425781 3.203125 -8.609375 3.953125 -8.609375 C 4.234375 -8.609375 4.476562 -8.546875 4.6875 -8.421875 C 4.90625 -8.304688 5.015625 -8.128906 5.015625 -7.890625 C 5.015625 -7.703125 4.960938 -7.550781 4.859375 -7.4375 C 4.753906 -7.320312 4.625 -7.265625 4.46875 -7.265625 C 4.425781 -7.265625 4.382812 -7.265625 4.34375 -7.265625 C 4.300781 -7.273438 4.253906 -7.285156 4.203125 -7.296875 C 4.015625 -7.347656 3.863281 -7.375 3.75 -7.375 Z M 3.75 -7.375 "/></g></g></g><g fill="#ffffff" fill-opacity="1"><g transform="translate(100.843336, 19.226843)"><g><path d="M 3.75 -7.375 C 3.476562 -7.375 3.285156 -7.296875 3.171875 -7.140625 C 3.066406 -6.992188 3.015625 -6.832031 3.015625 -6.65625 L 3.015625 -6.109375 L 4.078125 -6.109375 C 4.265625 -6.109375 4.421875 -6.046875 4.546875 -5.921875 C 4.671875 -5.804688 4.734375 -5.65625 4.734375 -5.46875 C 4.734375 -5.28125 4.671875 -5.125 4.546875 -5 C 4.421875 -4.882812 4.265625 -4.828125 4.078125 -4.828125 L 3.015625 -4.828125 L 3.015625 -0.703125 C 3.015625 -0.503906 2.945312 -0.335938 2.8125 -0.203125 C 2.6875 -0.0664062 2.523438 0 2.328125 0 C 2.117188 0 1.945312 -0.0664062 1.8125 -0.203125 C 1.6875 -0.335938 1.625 -0.503906 1.625 -0.703125 L 1.625 -4.828125 L 1 -4.828125 C 0.8125 -4.828125 0.65625 -4.882812 0.53125 -5 C 0.40625 -5.125 0.34375 -5.28125 0.34375 -5.46875 C 0.34375 -5.65625 0.40625 -5.804688 0.53125 -5.921875 C 0.65625 -6.046875 0.8125 -6.109375 1 -6.109375 L 1.625 -6.109375 L 1.625 -6.640625 C 1.625 -7.222656 1.820312 -7.695312 2.21875 -8.0625 C 2.625 -8.425781 3.203125 -8.609375 3.953125 -8.609375 C 4.234375 -8.609375 4.476562 -8.546875 4.6875 -8.421875 C 4.90625 -8.304688 5.015625 -8.128906 5.015625 -7.890625 C 5.015625 -7.703125 4.960938 -7.550781 4.859375 -7.4375 C 4.753906 -7.320312 4.625 -7.265625 4.46875 -7.265625 C 4.425781 -7.265625 4.382812 -7.265625 4.34375 -7.265625 C 4.300781 -7.273438 4.253906 -7.285156 4.203125 -7.296875 C 4.015625 -7.347656 3.863281 -7.375 3.75 -7.375 Z M 3.75 -7.375 "/></g></g></g><g fill="#ffffff" fill-opacity="1"><g transform="translate(105.924765, 19.226843)"><g><path d="M 6.328125 -3.25 C 6.328125 -3.0625 6.253906 -2.910156 6.109375 -2.796875 C 5.972656 -2.679688 5.8125 -2.625 5.625 -2.625 L 1.796875 -2.625 C 1.890625 -2.164062 2.097656 -1.804688 2.421875 -1.546875 C 2.753906 -1.285156 3.132812 -1.15625 3.5625 -1.15625 C 3.875 -1.15625 4.117188 -1.1875 4.296875 -1.25 C 4.472656 -1.3125 4.613281 -1.375 4.71875 -1.4375 C 4.820312 -1.5 4.894531 -1.539062 4.9375 -1.5625 C 5.082031 -1.632812 5.210938 -1.671875 5.328125 -1.671875 C 5.492188 -1.671875 5.632812 -1.613281 5.75 -1.5 C 5.863281 -1.382812 5.921875 -1.25 5.921875 -1.09375 C 5.921875 -0.882812 5.816406 -0.691406 5.609375 -0.515625 C 5.390625 -0.335938 5.097656 -0.1875 4.734375 -0.0625 C 4.367188 0.0507812 4 0.109375 3.625 0.109375 C 2.976562 0.109375 2.410156 -0.0234375 1.921875 -0.296875 C 1.441406 -0.566406 1.066406 -0.9375 0.796875 -1.40625 C 0.535156 -1.882812 0.40625 -2.421875 0.40625 -3.015625 C 0.40625 -3.679688 0.546875 -4.265625 0.828125 -4.765625 C 1.109375 -5.273438 1.472656 -5.660156 1.921875 -5.921875 C 2.378906 -6.191406 2.867188 -6.328125 3.390625 -6.328125 C 3.898438 -6.328125 4.378906 -6.1875 4.828125 -5.90625 C 5.285156 -5.632812 5.648438 -5.257812 5.921875 -4.78125 C 6.191406 -4.3125 6.328125 -3.800781 6.328125 -3.25 Z M 3.390625 -5.0625 C 2.492188 -5.0625 1.960938 -4.640625 1.796875 -3.796875 L 4.84375 -3.796875 L 4.84375 -3.875 C 4.8125 -4.195312 4.648438 -4.472656 4.359375 -4.703125 C 4.078125 -4.941406 3.753906 -5.0625 3.390625 -5.0625 Z M 3.390625 -5.0625 "/></g></g></g><g fill="#ffffff" fill-opacity="1"><g transform="translate(112.901553, 19.226843)"><g><path d="M 6.328125 -3.25 C 6.328125 -3.0625 6.253906 -2.910156 6.109375 -2.796875 C 5.972656 -2.679688 5.8125 -2.625 5.625 -2.625 L 1.796875 -2.625 C 1.890625 -2.164062 2.097656 -1.804688 2.421875 -1.546875 C 2.753906 -1.285156 3.132812 -1.15625 3.5625 -1.15625 C 3.875 -1.15625 4.117188 -1.1875 4.296875 -1.25 C 4.472656 -1.3125 4.613281 -1.375 4.71875 -1.4375 C 4.820312 -1.5 4.894531 -1.539062 4.9375 -1.5625 C 5.082031 -1.632812 5.210938 -1.671875 5.328125 -1.671875 C 5.492188 -1.671875 5.632812 -1.613281 5.75 -1.5 C 5.863281 -1.382812 5.921875 -1.25 5.921875 -1.09375 C 5.921875 -0.882812 5.816406 -0.691406 5.609375 -0.515625 C 5.390625 -0.335938 5.097656 -0.1875 4.734375 -0.0625 C 4.367188 0.0507812 4 0.109375 3.625 0.109375 C 2.976562 0.109375 2.410156 -0.0234375 1.921875 -0.296875 C 1.441406 -0.566406 1.066406 -0.9375 0.796875 -1.40625 C 0.535156 -1.882812 0.40625 -2.421875 0.40625 -3.015625 C 0.40625 -3.679688 0.546875 -4.265625 0.828125 -4.765625 C 1.109375 -5.273438 1.472656 -5.660156 1.921875 -5.921875 C 2.378906 -6.191406 2.867188 -6.328125 3.390625 -6.328125 C 3.898438 -6.328125 4.378906 -6.1875 4.828125 -5.90625 C 5.285156 -5.632812 5.648438 -5.257812 5.921875 -4.78125 C 6.191406 -4.3125 6.328125 -3.800781 6.328125 -3.25 Z M 3.390625 -5.0625 C 2.492188 -5.0625 1.960938 -4.640625 1.796875 -3.796875 L 4.84375 -3.796875 L 4.84375 -3.875 C 4.8125 -4.195312 4.648438 -4.472656 4.359375 -4.703125 C 4.078125 -4.941406 3.753906 -5.0625 3.390625 -5.0625 Z M 3.390625 -5.0625 "/></g></g></g><g fill="#ffffff" fill-opacity="1"><g transform="translate(119.878342, 19.226843)"><g/></g></g><g fill="#ffffff" fill-opacity="1"><g transform="translate(123.366739, 19.226843)"><g><path d="M 6.5625 -7.75 C 6.800781 -7.625 6.921875 -7.425781 6.921875 -7.15625 C 6.921875 -6.988281 6.863281 -6.828125 6.75 -6.671875 C 6.625 -6.503906 6.46875 -6.421875 6.28125 -6.421875 C 6.144531 -6.421875 6.007812 -6.457031 5.875 -6.53125 C 5.5 -6.707031 5.09375 -6.796875 4.65625 -6.796875 C 4.113281 -6.796875 3.640625 -6.679688 3.234375 -6.453125 C 2.828125 -6.222656 2.515625 -5.898438 2.296875 -5.484375 C 2.078125 -5.078125 1.96875 -4.601562 1.96875 -4.0625 C 1.96875 -3.15625 2.210938 -2.460938 2.703125 -1.984375 C 3.203125 -1.515625 3.851562 -1.28125 4.65625 -1.28125 C 5.125 -1.28125 5.53125 -1.367188 5.875 -1.546875 C 6.019531 -1.609375 6.144531 -1.640625 6.25 -1.640625 C 6.457031 -1.640625 6.628906 -1.554688 6.765625 -1.390625 C 6.878906 -1.234375 6.9375 -1.070312 6.9375 -0.90625 C 6.9375 -0.78125 6.90625 -0.664062 6.84375 -0.5625 C 6.78125 -0.46875 6.691406 -0.394531 6.578125 -0.34375 C 5.972656 -0.0390625 5.332031 0.109375 4.65625 0.109375 C 3.894531 0.109375 3.195312 -0.046875 2.5625 -0.359375 C 1.925781 -0.679688 1.414062 -1.15625 1.03125 -1.78125 C 0.65625 -2.414062 0.46875 -3.175781 0.46875 -4.0625 C 0.46875 -4.851562 0.644531 -5.5625 1 -6.1875 C 1.363281 -6.820312 1.863281 -7.316406 2.5 -7.671875 C 3.132812 -8.023438 3.851562 -8.203125 4.65625 -8.203125 C 5.34375 -8.203125 5.976562 -8.050781 6.5625 -7.75 Z M 6.5625 -7.75 "/></g></g></g><g fill="#ffffff" fill-opacity="1"><g transform="translate(130.890041, 19.226843)"><g><path d="M 2.265625 -0.703125 C 2.265625 -0.503906 2.195312 -0.335938 2.0625 -0.203125 C 1.925781 -0.0664062 1.757812 0 1.5625 0 C 1.363281 0 1.195312 -0.0664062 1.0625 -0.203125 C 0.9375 -0.335938 0.875 -0.503906 0.875 -0.703125 L 0.875 -7.890625 C 0.875 -8.097656 0.941406 -8.269531 1.078125 -8.40625 C 1.210938 -8.539062 1.378906 -8.609375 1.578125 -8.609375 C 1.773438 -8.609375 1.9375 -8.539062 2.0625 -8.40625 C 2.195312 -8.269531 2.265625 -8.097656 2.265625 -7.890625 Z M 2.265625 -0.703125 "/></g></g></g><g fill="#ffffff" fill-opacity="1"><g transform="translate(134.262155, 19.226843)"><g><path d="M 5.796875 -6.328125 C 5.992188 -6.328125 6.15625 -6.257812 6.28125 -6.125 C 6.414062 -6 6.484375 -5.832031 6.484375 -5.625 L 6.484375 -0.703125 C 6.484375 -0.503906 6.414062 -0.335938 6.28125 -0.203125 C 6.15625 -0.0664062 5.992188 0 5.796875 0 C 5.585938 0 5.421875 -0.0625 5.296875 -0.1875 C 5.171875 -0.320312 5.101562 -0.492188 5.09375 -0.703125 C 4.894531 -0.472656 4.628906 -0.28125 4.296875 -0.125 C 3.972656 0.03125 3.628906 0.109375 3.265625 0.109375 C 2.734375 0.109375 2.25 -0.0234375 1.8125 -0.296875 C 1.375 -0.566406 1.03125 -0.945312 0.78125 -1.4375 C 0.53125 -1.925781 0.40625 -2.484375 0.40625 -3.109375 C 0.40625 -3.722656 0.53125 -4.273438 0.78125 -4.765625 C 1.03125 -5.265625 1.367188 -5.648438 1.796875 -5.921875 C 2.222656 -6.191406 2.695312 -6.328125 3.21875 -6.328125 C 3.59375 -6.328125 3.941406 -6.257812 4.265625 -6.125 C 4.585938 -5.988281 4.863281 -5.816406 5.09375 -5.609375 L 5.09375 -5.625 C 5.09375 -5.820312 5.15625 -5.988281 5.28125 -6.125 C 5.414062 -6.257812 5.585938 -6.328125 5.796875 -6.328125 Z M 3.4375 -1.15625 C 3.945312 -1.15625 4.359375 -1.335938 4.671875 -1.703125 C 4.992188 -2.078125 5.15625 -2.546875 5.15625 -3.109375 C 5.15625 -3.660156 4.992188 -4.125 4.671875 -4.5 C 4.359375 -4.875 3.945312 -5.0625 3.4375 -5.0625 C 2.945312 -5.0625 2.539062 -4.875 2.21875 -4.5 C 1.90625 -4.125 1.75 -3.660156 1.75 -3.109375 C 1.75 -2.546875 1.90625 -2.078125 2.21875 -1.703125 C 2.53125 -1.335938 2.9375 -1.15625 3.4375 -1.15625 Z M 3.4375 -1.15625 "/></g></g></g><g fill="#ffffff" fill-opacity="1"><g transform="translate(141.738949, 19.226843)"><g><path d="M 0.390625 -0.96875 C 0.328125 -1.0625 0.296875 -1.175781 0.296875 -1.3125 C 0.296875 -1.507812 0.394531 -1.679688 0.59375 -1.828125 C 0.695312 -1.898438 0.8125 -1.9375 0.9375 -1.9375 C 1.09375 -1.9375 1.242188 -1.859375 1.390625 -1.703125 C 1.628906 -1.460938 1.875 -1.285156 2.125 -1.171875 C 2.375 -1.054688 2.675781 -1 3.03125 -1 C 3.632812 -1.019531 3.9375 -1.25 3.9375 -1.6875 C 3.9375 -1.90625 3.832031 -2.070312 3.625 -2.1875 C 3.425781 -2.3125 3.109375 -2.429688 2.671875 -2.546875 C 2.222656 -2.671875 1.859375 -2.796875 1.578125 -2.921875 C 1.296875 -3.046875 1.050781 -3.234375 0.84375 -3.484375 C 0.632812 -3.734375 0.53125 -4.070312 0.53125 -4.5 C 0.53125 -4.875 0.632812 -5.195312 0.84375 -5.46875 C 1.0625 -5.738281 1.34375 -5.945312 1.6875 -6.09375 C 2.03125 -6.25 2.398438 -6.328125 2.796875 -6.328125 C 3.191406 -6.328125 3.582031 -6.253906 3.96875 -6.109375 C 4.363281 -5.960938 4.675781 -5.75 4.90625 -5.46875 C 5.007812 -5.34375 5.0625 -5.203125 5.0625 -5.046875 C 5.0625 -4.867188 4.988281 -4.722656 4.84375 -4.609375 C 4.726562 -4.515625 4.601562 -4.46875 4.46875 -4.46875 C 4.289062 -4.46875 4.148438 -4.523438 4.046875 -4.640625 C 3.910156 -4.804688 3.726562 -4.941406 3.5 -5.046875 C 3.28125 -5.148438 3.03125 -5.203125 2.75 -5.203125 C 2.164062 -5.203125 1.875 -4.988281 1.875 -4.5625 C 1.875 -4.382812 1.925781 -4.242188 2.03125 -4.140625 C 2.144531 -4.035156 2.285156 -3.953125 2.453125 -3.890625 C 2.617188 -3.835938 2.851562 -3.769531 3.15625 -3.6875 C 3.570312 -3.570312 3.914062 -3.453125 4.1875 -3.328125 C 4.46875 -3.203125 4.707031 -3.007812 4.90625 -2.75 C 5.101562 -2.5 5.203125 -2.164062 5.203125 -1.75 C 5.203125 -1.363281 5.085938 -1.03125 4.859375 -0.75 C 4.628906 -0.46875 4.335938 -0.253906 3.984375 -0.109375 C 3.640625 0.0351562 3.28125 0.109375 2.90625 0.109375 C 2.394531 0.109375 1.914062 0.0234375 1.46875 -0.140625 C 1.03125 -0.304688 0.671875 -0.582031 0.390625 -0.96875 Z M 0.390625 -0.96875 "/></g></g></g><g fill="#ffffff" fill-opacity="1"><g transform="translate(147.576202, 19.226843)"><g><path d="M 0.390625 -0.96875 C 0.328125 -1.0625 0.296875 -1.175781 0.296875 -1.3125 C 0.296875 -1.507812 0.394531 -1.679688 0.59375 -1.828125 C 0.695312 -1.898438 0.8125 -1.9375 0.9375 -1.9375 C 1.09375 -1.9375 1.242188 -1.859375 1.390625 -1.703125 C 1.628906 -1.460938 1.875 -1.285156 2.125 -1.171875 C 2.375 -1.054688 2.675781 -1 3.03125 -1 C 3.632812 -1.019531 3.9375 -1.25 3.9375 -1.6875 C 3.9375 -1.90625 3.832031 -2.070312 3.625 -2.1875 C 3.425781 -2.3125 3.109375 -2.429688 2.671875 -2.546875 C 2.222656 -2.671875 1.859375 -2.796875 1.578125 -2.921875 C 1.296875 -3.046875 1.050781 -3.234375 0.84375 -3.484375 C 0.632812 -3.734375 0.53125 -4.070312 0.53125 -4.5 C 0.53125 -4.875 0.632812 -5.195312 0.84375 -5.46875 C 1.0625 -5.738281 1.34375 -5.945312 1.6875 -6.09375 C 2.03125 -6.25 2.398438 -6.328125 2.796875 -6.328125 C 3.191406 -6.328125 3.582031 -6.253906 3.96875 -6.109375 C 4.363281 -5.960938 4.675781 -5.75 4.90625 -5.46875 C 5.007812 -5.34375 5.0625 -5.203125 5.0625 -5.046875 C 5.0625 -4.867188 4.988281 -4.722656 4.84375 -4.609375 C 4.726562 -4.515625 4.601562 -4.46875 4.46875 -4.46875 C 4.289062 -4.46875 4.148438 -4.523438 4.046875 -4.640625 C 3.910156 -4.804688 3.726562 -4.941406 3.5 -5.046875 C 3.28125 -5.148438 3.03125 -5.203125 2.75 -5.203125 C 2.164062 -5.203125 1.875 -4.988281 1.875 -4.5625 C 1.875 -4.382812 1.925781 -4.242188 2.03125 -4.140625 C 2.144531 -4.035156 2.285156 -3.953125 2.453125 -3.890625 C 2.617188 -3.835938 2.851562 -3.769531 3.15625 -3.6875 C 3.570312 -3.570312 3.914062 -3.453125 4.1875 -3.328125 C 4.46875 -3.203125 4.707031 -3.007812 4.90625 -2.75 C 5.101562 -2.5 5.203125 -2.164062 5.203125 -1.75 C 5.203125 -1.363281 5.085938 -1.03125 4.859375 -0.75 C 4.628906 -0.46875 4.335938 -0.253906 3.984375 -0.109375 C 3.640625 0.0351562 3.28125 0.109375 2.90625 0.109375 C 2.394531 0.109375 1.914062 0.0234375 1.46875 -0.140625 C 1.03125 -0.304688 0.671875 -0.582031 0.390625 -0.96875 Z M 0.390625 -0.96875 "/></g></g></g></svg>