<?xml version="1.0" encoding="utf-8"?><svg xmlns="http://www.w3.org/2000/svg" xmlns:xlink="http://www.w3.org/1999/xlink" width="200px" height="200px" viewBox="0 0 100 100" preserveAspectRatio="xMidYMid" style="margin-right:-2px;display:block;background-repeat-y:initial;background-repeat-x:initial;animation-play-state:paused" ><defs style="animation-play-state:paused" ><linearGradient id="ldio-j385panydy8-gradient" x1="0%" x2="0%" y1="0%" y2="100%" style="animation-play-state:paused" ><stop offset="10%" stop-color="black" stop-opacity="0" style="animation-play-state:paused" ></stop>

    
<stop offset="100%" stop-color="white" stop-opacity="1" style="animation-play-state:paused" ></stop></linearGradient>

  
<mask id="ldio-j385panydy8-mask" maskUnits="userSpaceOnUse" x="0" y="0" width="100" height="100" style="animation-play-state:paused" ><rect x="22" y="8" width="56" height="54" fill="url(#ldio-j385panydy8-gradient)" style="animation-play-state:paused" ></rect></mask>

  
<path id="ldio-j385panydy8-steam" d="M0-4c-2.1,2.6-2.1,6.4,0,9l0,0c2.1,2.6,2.1,6.4,0,9l0,0c-2.1,2.6-2.1,6.4,0,9l0,0c2.1,2.6,2.1,6.4,0,9l0,0 c-2.1,2.6-2.1,6.4,0,9l0,0c2.1,2.6,2.1,6.4,0,9c-2.1,2.6-2.1,6.4,0,9l0,0c2.1,2.6,2.1,6.4,0,9l0,0c-2.1,2.6-2.1,6.4,0,9l0,0 c2.1,2.6,2.1,6.4,0,9l0,0c-2.1,2.6-2.1,6.4,0,9l0,0c2.1,2.6,2.1,6.4,0,9c-2.1,2.6-2.1,6.4,0,9l0,0c2.1,2.6,2.1,6.4,0,9l0,0 c-2.1,2.6-2.1,6.4,0,9h0c2.1,2.6,2.1,6.4,0,9h0c-2.1,2.6-2.1,6.4,0,9h0c2.1,2.6,2.1,6.4,0,9" stroke-width="6" stroke-linecap="round" fill="#f00" stroke="#f8b26a" style="animation-play-state:paused" ></path></defs>


<g mask="url(#ldio-j385panydy8-mask)" style="animation-play-state:paused" ><use x="29" y="-4.999992370605469" xlink:href="#ldio-j385panydy8-steam" style="animation-play-state:paused" ></use>

  
<use x="47" y="-4.499988079071045" xlink:href="#ldio-j385panydy8-steam" style="animation-play-state:paused" ></use>

  
<use x="64" y="-9.99998950958252" xlink:href="#ldio-j385panydy8-steam" style="animation-play-state:paused" ></use></g>


<path d="M81.2,52.5l-5.2,0V49c0-1.6-1.3-3-3-3H20c-1.6,0-3,1.3-3,3v11.6C17,71.3,25.7,80,36.5,80h20.1 c7.1,0,13.3-3.8,16.7-9.5h8.3c5.2,0,9.3-4.4,9-9.6C90.2,56.1,86,52.5,81.2,52.5z M81.5,67.5h-6.8c0.8-2.2,1.3-4.5,1.3-7v-5h5.5 c3.3,0,6,2.7,6,6S84.8,67.5,81.5,67.5z" fill="#f8b26a" style="animation-play-state:paused" ></path>


<path d="M78.8,88H19.2c-1.1,0-2-0.9-2-2s0.9-2,2-2h59.5c1.1,0,2,0.9,2,2S79.9,88,78.8,88z" fill="#d1d1d1" style="animation-play-state:paused" ></path><!-- generated by https://loading.io/ --></svg>